<svg width="122" height="82" viewBox="0 0 122 82" fill="none" xmlns="http://www.w3.org/2000/svg">
<path d="M115.399 64.0001V53.7366H117.579V62.211H122V64.0001H115.399Z" fill="#EAEAEA"/>
<path d="M106.571 64.0001H104.235L107.795 53.7366H110.604L114.159 64.0001H111.822L109.24 56.0819H109.159L106.571 64.0001ZM106.425 59.9658H111.943V61.6597H106.425V59.9658Z" fill="#EAEAEA"/>
<path d="M96.1914 55.5257V53.7366H104.66V55.5257H101.503V64.0001H99.3481V55.5257H96.1914Z" fill="#EAEAEA"/>
<path d="M94.7834 53.7366V64.0001H92.9005L88.4147 57.5403H88.3392V64.0001H86.1592V53.7366H88.0723L92.5229 60.1914H92.6135V53.7366H94.7834Z" fill="#EAEAEA"/>
<path d="M77.4785 64.0001V53.7366H84.4262V55.5257H79.6585V57.9713H84.0688V59.7604H79.6585V62.211H84.4464V64.0001H77.4785Z" fill="#EAEAEA"/>
<path d="M64.5049 53.7366H67.1934L70.0329 60.6324H70.1537L72.9932 53.7366H75.6817V64.0001H73.5671V57.3198H73.4816L70.8132 63.95H69.3733L66.705 57.2947H66.6194V64.0001H64.5049V53.7366Z" fill="#EAEAEA"/>
<path d="M62.7034 53.7366V64.0001H60.8204L56.3346 57.5403H56.2591V64.0001H54.0791V53.7366H55.9922L60.4428 60.1914H60.5334V53.7366H62.7034Z" fill="#EAEAEA"/>
<path d="M52.4649 58.8683C52.4649 59.9875 52.2518 60.9397 51.8255 61.7248C51.4026 62.51 50.8253 63.1097 50.0936 63.5239C49.3653 63.9349 48.5463 64.1404 47.6368 64.1404C46.7205 64.1404 45.8982 63.9332 45.1698 63.5189C44.4415 63.1046 43.8659 62.5049 43.443 61.7198C43.02 60.9347 42.8086 59.9842 42.8086 58.8683C42.8086 57.749 43.02 56.7969 43.443 56.0117C43.8659 55.2266 44.4415 54.6286 45.1698 54.2176C45.8982 53.8033 46.7205 53.5962 47.6368 53.5962C48.5463 53.5962 49.3653 53.8033 50.0936 54.2176C50.8253 54.6286 51.4026 55.2266 51.8255 56.0117C52.2518 56.7969 52.4649 57.749 52.4649 58.8683ZM50.2547 58.8683C50.2547 58.1433 50.1457 57.5319 49.9275 57.0341C49.7127 56.5363 49.4089 56.1587 49.0162 55.9015C48.6235 55.6442 48.1637 55.5156 47.6368 55.5156C47.1098 55.5156 46.65 55.6442 46.2573 55.9015C45.8646 56.1587 45.5592 56.5363 45.341 57.0341C45.1262 57.5319 45.0188 58.1433 45.0188 58.8683C45.0188 59.5933 45.1262 60.2047 45.341 60.7025C45.5592 61.2003 45.8646 61.5778 46.2573 61.8351C46.65 62.0923 47.1098 62.221 47.6368 62.221C48.1637 62.221 48.6235 62.0923 49.0162 61.8351C49.4089 61.5778 49.7127 61.2003 49.9275 60.7025C50.1457 60.2047 50.2547 59.5933 50.2547 58.8683Z" fill="#EAEAEA"/>
<path d="M33.6855 64.0001V53.7366H37.7535C38.5322 53.7366 39.1967 53.8752 39.7472 54.1525C40.301 54.4265 40.7222 54.8157 41.0109 55.3202C41.3029 55.8214 41.4489 56.411 41.4489 57.0893C41.4489 57.7708 41.3012 58.3572 41.0058 58.8483C40.7105 59.3361 40.2825 59.7103 39.722 59.9709C39.1649 60.2315 38.4902 60.3618 37.6981 60.3618H34.9744V58.6178H37.3457C37.7619 58.6178 38.1076 58.561 38.3828 58.4474C38.658 58.3338 38.8628 58.1634 38.997 57.9362C39.1346 57.709 39.2035 57.4267 39.2035 57.0893C39.2035 56.7485 39.1346 56.4612 38.997 56.2273C38.8628 55.9934 38.6564 55.8163 38.3778 55.6961C38.1026 55.5724 37.7552 55.5106 37.3356 55.5106H35.8655V64.0001H33.6855ZM39.2538 59.3294L41.8164 64.0001H39.4099L36.9026 59.3294H39.2538Z" fill="#EAEAEA"/>
<path d="M31.8929 53.7366V64.0001H29.7129V53.7366H31.8929Z" fill="#EAEAEA"/>
<path d="M20.9695 53.7366L23.4616 61.5344H23.5573L26.0544 53.7366H28.471L24.9166 64.0001H22.1073L18.5479 53.7366H20.9695Z" fill="#EAEAEA"/>
<path d="M17.3059 53.7366V64.0001H15.423L10.9371 57.5403H10.8616V64.0001H8.68164V53.7366H10.5948L15.0454 60.1914H15.136V53.7366H17.3059Z" fill="#EAEAEA"/>
<path d="M0 64.0001V53.7366H6.94773V55.5257H2.17998V57.9713H6.59028V59.7604H2.17998V62.211H6.96787V64.0001H0Z" fill="#EAEAEA"/>
<path d="M119.903 74.2008C119.866 73.8249 119.703 73.5328 119.416 73.3247C119.129 73.1165 118.739 73.0124 118.247 73.0124C117.912 73.0124 117.63 73.059 117.399 73.1523C117.169 73.2424 116.992 73.3682 116.869 73.5297C116.749 73.6913 116.689 73.8746 116.689 74.0796C116.683 74.2505 116.719 74.3996 116.798 74.527C116.88 74.6544 116.992 74.7647 117.134 74.8579C117.276 74.948 117.44 75.0272 117.627 75.0956C117.813 75.1608 118.012 75.2167 118.223 75.2633L119.094 75.4684C119.517 75.5616 119.905 75.6859 120.258 75.8412C120.612 75.9965 120.918 76.1876 121.177 76.4144C121.436 76.6412 121.636 76.9084 121.778 77.216C121.923 77.5236 121.997 77.8762 122 78.2739C121.997 78.8579 121.846 79.3643 121.546 79.7931C121.249 80.2187 120.82 80.5496 120.258 80.7857C119.7 81.0187 119.026 81.1352 118.237 81.1352C117.455 81.1352 116.773 81.0172 116.192 80.7811C115.615 80.5449 115.164 80.1954 114.839 79.7325C114.517 79.2665 114.348 78.6902 114.332 78.0036H116.315C116.337 78.3236 116.431 78.5907 116.595 78.8051C116.762 79.0164 116.984 79.1764 117.262 79.2851C117.543 79.3908 117.86 79.4436 118.214 79.4436C118.561 79.4436 118.862 79.3939 119.118 79.2944C119.376 79.195 119.577 79.0568 119.719 78.8797C119.861 78.7026 119.932 78.4991 119.932 78.2692C119.932 78.0548 119.867 77.8746 119.738 77.7286C119.612 77.5826 119.425 77.4583 119.179 77.3558C118.936 77.2533 118.638 77.1601 118.285 77.0762L117.229 76.8152C116.412 76.6195 115.766 76.3134 115.293 75.8971C114.82 75.4808 114.584 74.92 114.588 74.2148C114.584 73.6369 114.741 73.1321 115.056 72.7002C115.375 72.2684 115.812 71.9313 116.367 71.6889C116.923 71.4466 117.554 71.3254 118.261 71.3254C118.98 71.3254 119.608 71.4466 120.145 71.6889C120.684 71.9313 121.104 72.2684 121.404 72.7002C121.704 73.1321 121.858 73.6323 121.868 74.2008H119.903Z" fill="#EAEAEA"/>
<path d="M106.481 81V71.4558H113.014V73.1195H108.531V75.3937H112.678V77.0574H108.531V79.3363H113.033V81H106.481Z" fill="#EAEAEA"/>
<path d="M105.013 74.7973H102.94C102.902 74.5332 102.825 74.2987 102.708 74.0936C102.591 73.8855 102.441 73.7084 102.258 73.5624C102.075 73.4163 101.864 73.3045 101.624 73.2268C101.387 73.1491 101.13 73.1103 100.852 73.1103C100.35 73.1103 99.9134 73.233 99.541 73.4785C99.1686 73.7208 98.8799 74.075 98.6748 74.541C98.4697 75.0039 98.3671 75.5663 98.3671 76.228C98.3671 76.9084 98.4697 77.4801 98.6748 77.943C98.8831 78.4059 99.1734 78.7554 99.5458 78.9915C99.9181 79.2276 100.349 79.3457 100.838 79.3457C101.113 79.3457 101.367 79.31 101.6 79.2385C101.837 79.1671 102.047 79.063 102.23 78.9263C102.413 78.7865 102.564 78.6172 102.684 78.4183C102.807 78.2195 102.892 77.9927 102.94 77.7379L105.013 77.7472C104.959 78.1853 104.825 78.6078 104.611 79.0148C104.399 79.4187 104.114 79.7807 103.754 80.1007C103.397 80.4176 102.971 80.6692 102.476 80.8556C101.984 81.0389 101.427 81.1306 100.805 81.1306C99.9402 81.1306 99.1671 80.938 98.4854 80.5527C97.807 80.1675 97.2705 79.6098 96.876 78.8797C96.4847 78.1496 96.2891 77.2657 96.2891 76.228C96.2891 75.1872 96.4879 74.3018 96.8855 73.5717C97.2831 72.8416 97.8227 72.2854 98.5044 71.9033C99.186 71.5181 99.9528 71.3254 100.805 71.3254C101.367 71.3254 101.887 71.4031 102.367 71.5585C102.85 71.7138 103.277 71.9406 103.65 72.2388C104.022 72.534 104.325 72.8959 104.559 73.3247C104.795 73.7534 104.947 74.2443 105.013 74.7973Z" fill="#EAEAEA"/>
<path d="M94.7723 71.4558V81H92.7227V71.4558H94.7723Z" fill="#EAEAEA"/>
<path d="M84.5024 71.4558L86.8455 78.7071H86.9355L89.2833 71.4558H91.5554L88.2135 81H85.5722L82.2256 71.4558H84.5024Z" fill="#EAEAEA"/>
<path d="M74.2637 81V71.4558H78.0884C78.8205 71.4558 79.4453 71.5847 79.9629 71.8426C80.4836 72.0974 80.8796 72.4593 81.151 72.9284C81.4256 73.3945 81.5628 73.9428 81.5628 74.5735C81.5628 75.2073 81.424 75.7525 81.1463 76.2093C80.8686 76.6628 80.4662 77.0108 79.9392 77.2531C79.4154 77.4955 78.7811 77.6166 78.0363 77.6166H75.4755V75.9949H77.705C78.0963 75.9949 78.4213 75.9421 78.6801 75.8364C78.9389 75.7308 79.1314 75.5724 79.2576 75.3611C79.387 75.1498 79.4517 74.8873 79.4517 74.5735C79.4517 74.2566 79.387 73.9894 79.2576 73.7719C79.1314 73.5545 78.9373 73.3898 78.6754 73.278C78.4166 73.163 78.09 73.1055 77.6955 73.1055H76.3133V81H74.2637ZM79.499 76.6566L81.9084 81H79.6457L77.2884 76.6566H79.499Z" fill="#EAEAEA"/>
<path d="M66.1016 81V71.4558H72.6339V73.1195H68.1512V75.3937H72.2978V77.0574H68.1512V79.3363H72.6528V81H66.1016Z" fill="#EAEAEA"/>
<path d="M62.6271 74.2008C62.5892 73.8249 62.4267 73.5328 62.1395 73.3247C61.8523 73.1165 61.4626 73.0124 60.9703 73.0124C60.6358 73.0124 60.3534 73.059 60.123 73.1523C59.8926 73.2424 59.7159 73.3682 59.5929 73.5297C59.4729 73.6913 59.413 73.8746 59.413 74.0796C59.4067 74.2505 59.443 74.3996 59.5218 74.527C59.6039 74.6544 59.7159 74.7647 59.8579 74.8579C59.9999 74.948 60.164 75.0272 60.3502 75.0956C60.5364 75.1608 60.7352 75.2167 60.9467 75.2633L61.8176 75.4684C62.2405 75.5616 62.6286 75.6859 62.9821 75.8412C63.3355 75.9965 63.6416 76.1876 63.9004 76.4144C64.1592 76.6412 64.3596 76.9084 64.5016 77.216C64.6467 77.5236 64.7209 77.8762 64.724 78.2739C64.7209 78.8579 64.5694 79.3643 64.2696 79.7931C63.973 80.2187 63.5438 80.5496 62.9821 80.7857C62.4235 81.0187 61.7498 81.1352 60.9609 81.1352C60.1782 81.1352 59.4966 81.0172 58.916 80.7811C58.3385 80.5449 57.8872 80.1954 57.5622 79.7325C57.2403 79.2665 57.0714 78.6902 57.0557 78.0036H59.039C59.0611 78.3236 59.1542 78.5907 59.3183 78.8051C59.4856 79.0164 59.708 79.1764 59.9857 79.2851C60.2666 79.3908 60.5837 79.4436 60.9372 79.4436C61.2843 79.4436 61.5857 79.3939 61.8413 79.2944C62.1001 79.195 62.3005 79.0568 62.4425 78.8797C62.5845 78.7026 62.6555 78.4991 62.6555 78.2692C62.6555 78.0548 62.5908 77.8746 62.4614 77.7286C62.3352 77.5826 62.149 77.4583 61.9028 77.3558C61.6598 77.2533 61.3616 77.1601 61.0082 77.0762L59.9526 76.8152C59.1353 76.6195 58.4899 76.3134 58.0166 75.8971C57.5432 75.4808 57.3081 74.92 57.3113 74.2148C57.3081 73.6369 57.4643 73.1321 57.7799 72.7002C58.0986 72.2684 58.5357 71.9313 59.0911 71.6889C59.6465 71.4466 60.2776 71.3254 60.9845 71.3254C61.704 71.3254 62.332 71.4466 62.8685 71.6889C63.4081 71.9313 63.8278 72.2684 64.1276 72.7002C64.4274 73.1321 64.582 73.6323 64.5915 74.2008H62.6271Z" fill="#EAEAEA"/>
<path d="M44.0557 71.4558H46.3514L48.562 75.5661H48.6567L50.8673 71.4558H53.163L49.6271 77.626V81H47.5916V77.626L44.0557 71.4558Z" fill="#EAEAEA"/>
<path d="M41.3017 74.541C41.2354 74.3142 41.1423 74.1138 41.0224 73.9398C40.9025 73.7627 40.7558 73.6136 40.5822 73.4924C40.4118 73.3682 40.2161 73.2734 39.9952 73.2082C39.7775 73.1429 39.5361 73.1103 39.271 73.1103C38.7756 73.1103 38.3401 73.2315 37.9645 73.4738C37.5922 73.7161 37.3018 74.0688 37.0936 74.5317C36.8853 74.9915 36.7812 75.5538 36.7812 76.2187C36.7812 76.8835 36.8837 77.449 37.0888 77.915C37.294 78.381 37.5843 78.7368 37.9598 78.9822C38.3353 79.2245 38.7787 79.3457 39.2899 79.3457C39.7538 79.3457 40.1499 79.2649 40.4781 79.1034C40.8094 78.9387 41.0619 78.7073 41.2354 78.409C41.4122 78.1107 41.5005 77.7581 41.5005 77.3511L41.9171 77.4117H39.4178V75.8925H43.4744V77.0948C43.4744 77.9337 43.2945 78.6544 42.9348 79.2572C42.575 79.8568 42.0796 80.3197 41.4484 80.6459C40.8173 80.969 40.0947 81.1306 39.2805 81.1306C38.3716 81.1306 37.5732 80.9333 36.8853 80.5387C36.1974 80.1411 35.6609 79.5772 35.2759 78.8471C34.894 78.1139 34.7031 77.2439 34.7031 76.2373C34.7031 75.4637 34.8167 74.774 35.0439 74.1682C35.2743 73.5592 35.5962 73.0435 36.0096 72.621C36.423 72.1985 36.9042 71.8769 37.4533 71.6563C38.0024 71.4357 38.5973 71.3254 39.2379 71.3254C39.787 71.3254 40.2982 71.4047 40.7716 71.5631C41.2449 71.7185 41.6646 71.939 42.0307 72.2249C42.3999 72.5107 42.7013 72.8509 42.9348 73.2455C43.1683 73.6369 43.3182 74.0688 43.3845 74.541H41.3017Z" fill="#EAEAEA"/>
<path d="M26.127 81V71.4558H29.9517C30.6838 71.4558 31.3086 71.5847 31.8262 71.8426C32.3469 72.0974 32.7429 72.4593 33.0143 72.9284C33.2888 73.3945 33.4261 73.9428 33.4261 74.5735C33.4261 75.2073 33.2873 75.7525 33.0096 76.2093C32.7319 76.6628 32.3295 77.0108 31.8025 77.2531C31.2786 77.4955 30.6444 77.6166 29.8996 77.6166H27.3387V75.9949H29.5683C29.9596 75.9949 30.2846 75.9421 30.5434 75.8364C30.8021 75.7308 30.9946 75.5724 31.1209 75.3611C31.2502 75.1498 31.3149 74.8873 31.3149 74.5735C31.3149 74.2566 31.2502 73.9894 31.1209 73.7719C30.9946 73.5545 30.8006 73.3898 30.5386 73.278C30.2799 73.163 29.9533 73.1055 29.5588 73.1055H28.1766V81H26.127ZM31.3623 76.6566L33.7717 81H31.509L29.1517 76.6566H31.3623Z" fill="#EAEAEA"/>
<path d="M17.9639 81V71.4558H24.4962V73.1195H20.0135V75.3937H24.1601V77.0574H20.0135V79.3363H24.5151V81H17.9639Z" fill="#EAEAEA"/>
<path d="M16.2707 71.4558V81H14.5003L10.2827 74.9929H10.2117V81H8.16211V71.4558H9.96086L14.1453 77.4582H14.2305V71.4558H16.2707Z" fill="#EAEAEA"/>
<path d="M0 81V71.4558H6.53232V73.1195H2.04963V75.3937H6.19623V77.0574H2.04963V79.3363H6.55125V81H0Z" fill="#EAEAEA"/>
<path d="M60.7119 25.5591C54.6388 25.5591 48.5763 25.5591 42.5032 25.5591C42.461 25.5591 42.4083 25.5486 42.3661 25.5591C42.1236 25.6118 42.0603 25.4959 42.0603 25.2642C42.0709 23.5892 42.0603 21.9142 42.0603 20.2392C42.0603 19.6808 42.0603 19.133 42.0498 18.5747C42.0498 18.3745 42.1025 18.3008 42.3134 18.3008C47.2899 18.3008 52.2665 18.3008 57.2325 18.3113C64.3283 18.3113 71.4347 18.3113 78.5305 18.3113C78.7202 18.3113 78.91 18.3218 79.0998 18.3113C79.2896 18.3008 79.3739 18.3745 79.3739 18.5747C79.3634 20.808 79.3634 23.0308 79.3634 25.2642C79.3634 25.4854 79.3107 25.5697 79.0576 25.5697C72.9529 25.5486 66.8271 25.5486 60.7119 25.5591Z" fill="#EAEAEA"/>
<path d="M60.6795 7.66055C54.5642 7.66055 48.449 7.66055 42.3337 7.66055C42.1439 7.66055 42.0596 7.61841 42.0596 7.38665C42.0701 5.14277 42.0701 2.89889 42.0596 0.644479C42.0596 0.454856 42.1228 0.381113 42.3021 0.381113C42.5024 0.381113 42.6922 0.381113 42.8925 0.381113C54.7224 0.381113 66.5628 0.381113 78.3926 0.381113C78.6035 0.381113 78.8249 0.391648 79.0358 0.370579C79.2783 0.349509 79.3732 0.423252 79.3732 0.686618C79.3626 2.80408 79.3626 4.91101 79.3626 7.02847C79.3626 7.65002 79.3626 7.66055 78.7511 7.66055C72.7307 7.65002 66.7104 7.65002 60.6795 7.66055Z" fill="#EAEAEA"/>
<path d="M60.7332 37.4106C66.7851 37.4106 72.8371 37.4106 78.8891 37.4106C79.3636 37.4106 79.3636 37.4106 79.3636 37.8847C79.3636 40.0443 79.3636 42.2039 79.3741 44.3635C79.3741 44.5742 79.3003 44.6585 79.0895 44.6585C78.5834 44.6479 78.0667 44.6479 77.5606 44.6479C66.0682 44.6479 54.5757 44.6479 43.0833 44.6479C42.8302 44.6479 42.5772 44.6585 42.3347 44.6585C42.1449 44.6585 42.0605 44.5953 42.0605 44.3951C42.0711 42.1512 42.0711 39.8968 42.0605 37.6529C42.0605 37.4528 42.1344 37.4212 42.3136 37.4212C48.4605 37.4106 54.5968 37.4106 60.7332 37.4106Z" fill="#EAEAEA"/>
<path d="M36.9885 0.370801C37.2309 0.349767 37.3254 0.423885 37.3254 0.687208C37.3149 2.80451 37.3157 4.9117 37.3157 7.029C37.3157 7.65014 37.3148 7.66084 36.7034 7.66084C30.6831 7.6503 24.6628 7.6503 18.632 7.66084H7.29106C7.28733 11.2063 7.28651 14.7524 7.29009 18.3015C9.92287 18.3027 12.5543 18.3056 15.1827 18.3112H36.4807C36.6703 18.3112 36.8604 18.3217 37.05 18.3112C37.2398 18.3007 37.3245 18.3747 37.3245 18.5749C37.3139 20.8082 37.3137 23.031 37.3137 25.2643C37.3137 25.4855 37.2611 25.57 37.008 25.57C30.9034 25.5489 24.7774 25.5487 18.6622 25.5593H7.29399V37.4137C11.0926 37.4113 14.8886 37.4108 18.6847 37.4108H36.8411C37.3151 37.4108 37.3157 37.4108 37.3157 37.8844C37.3157 40.044 37.3149 42.2043 37.3254 44.3639C37.3254 44.5743 37.2519 44.6588 37.0412 44.6589C36.5352 44.6483 36.018 44.6481 35.5119 44.6481H1.03516C0.782132 44.6481 0.528624 44.6589 0.286135 44.6589C0.0963497 44.6589 0.0117188 44.5953 0.0117188 44.3952C0.0176819 43.1261 0.0183602 41.8537 0.0175782 40.5817C0.014825 40.5617 0.0146485 40.5393 0.0146485 40.5153V38.9167C0.0134128 38.4952 0.0136965 38.0739 0.0117188 37.653C0.0117195 37.6347 0.0133857 37.6178 0.0146485 37.6022V25.3513C0.0120867 25.3245 0.0107436 25.2954 0.0107423 25.2643C0.0212859 23.5893 0.0107423 21.914 0.0107423 20.239C0.0107423 19.6808 0.0105398 19.1331 0 18.5749C0 18.5207 0.00482441 18.4759 0.0146485 18.4392V7.44502C0.0132553 7.42706 0.0117188 7.40737 0.0117188 7.38642C0.0136962 6.96555 0.013413 6.54467 0.0146485 6.12373V4.42549C0.0146485 4.21462 0.0249757 3.9928 0.00390627 3.78193C-0.00299535 3.70248 0.000786984 3.63916 0.0175782 3.58955C0.0169913 2.60932 0.0163179 1.6276 0.0117188 0.644239C0.0117993 0.454883 0.0757571 0.381544 0.254884 0.381544H36.345C36.5558 0.381544 36.7776 0.391871 36.9885 0.370801Z" fill="#EAEAEA"/>
<path d="M98.4812 44.8966C96.9321 44.8966 95.2797 44.8966 93.7306 44.8966C92.4913 44.8966 91.252 44.7931 90.2193 44.4828C89.4964 44.3793 88.7734 44.1724 88.1538 43.8621C87.2243 43.5517 86.3981 43.0345 85.5719 42.6207C85.1588 42.3103 84.7457 42 84.3326 41.5862C83.6097 40.9655 83.0933 40.2414 82.6802 39.4138C82.1639 38.3793 81.7508 37.3448 81.4409 36.2069C81.2344 35.4828 81.1311 34.7586 81.0278 33.931C81.0278 33.7241 80.9246 33.5172 80.9246 33.3103C80.9246 33.1034 80.8213 32.8966 80.8213 32.6897C80.8213 32.4828 80.8213 32.3793 80.8213 32.1724C80.8213 31.8621 80.8213 31.5517 80.8213 31.2414C80.8213 31.1379 81.0278 30.931 81.2344 30.931H84.2293C85.1588 30.931 86.0883 30.931 87.121 30.931C87.6374 30.931 87.6374 31.1379 87.7407 31.2414C87.844 31.4483 87.844 31.6552 87.844 31.9655V32.069C87.9472 33.1034 88.1538 33.931 88.4636 34.5517C88.8767 35.5862 89.7029 36.4138 90.6324 37.0345C91.5618 37.5517 92.4913 37.6552 93.4208 37.8621C93.8339 37.9655 94.1437 37.9655 94.4535 37.9655H95.1765C97.4485 37.9655 99.7205 37.9655 101.993 37.9655C104.265 37.9655 106.433 37.9655 108.705 37.9655C110.048 37.9655 111.081 37.7586 112.113 37.2414C113.043 36.8276 113.663 36.2069 114.076 35.3793C114.489 34.6552 114.592 33.931 114.695 33.3103C114.799 32.3793 114.799 31.4483 114.695 30.6207C114.592 29.7931 114.386 29.1724 113.972 28.5517C113.766 28.1379 113.456 27.8276 113.146 27.5172C112.63 27.1034 112.01 26.7931 111.184 26.5862C110.564 26.3793 109.945 26.2759 109.222 26.1724C108.361 26.1724 107.51 25.9655 106.64 25.9655C101.335 25.9655 95.965 25.3903 90.7356 24.5172C90.116 24.4138 89.5996 24.3103 89.0833 24.2069C88.1538 24 87.2243 23.6897 86.3981 23.2759C85.2621 22.7586 84.4359 22.1379 83.8163 21.5172C83.1966 20.8966 82.7835 20.2759 82.4737 19.5517C82.1639 18.8276 81.854 18.1034 81.6475 17.1724C81.5442 16.5517 81.4409 15.931 81.3377 15.2069V14.8966C81.2344 14.1724 81.2344 13.3448 81.2344 12.6207V11.7931C81.2344 10.9655 81.3377 10.2414 81.4409 9.41379C81.6475 8.27586 81.854 7.34483 82.1639 6.62069C82.3704 6 82.7835 5.37931 83.0933 4.86207C83.5064 4.03448 83.9195 3.51724 84.3326 3.10345C84.849 2.68966 85.3654 2.27586 85.985 1.96552C86.1916 1.86207 86.2948 1.75862 86.5014 1.65517C86.7079 1.55172 86.8112 1.44828 87.0178 1.34483L87.2243 1.24138C87.7407 1.03448 88.3603 0.827586 88.8767 0.724138C89.0833 0.724138 89.2898 0.62069 89.3931 0.62069C89.7029 0.517241 89.9095 0.413793 90.116 0.413793C90.3225 0.413793 90.5291 0.310345 90.6324 0.310345C90.8389 0.310345 91.0455 0.206897 91.252 0.206897C91.6651 0.103448 92.0782 0.103448 92.5946 0.103448C93.0077 0.103448 93.4208 0.103448 93.9372 0H94.0404C96.519 0 98.8943 0 101.373 0H105.297C106.33 0 107.26 0 108.292 0C108.912 0 109.532 0.103448 110.151 0.206897C110.461 0.206897 110.668 0.310345 110.977 0.310345C111.494 0.413793 112.01 0.517241 112.63 0.62069C112.94 0.724138 113.25 0.827586 113.559 0.827586C113.766 0.827586 113.869 0.931034 114.076 1.03448C114.179 1.13793 114.282 1.13793 114.386 1.13793C115.005 1.34483 115.625 1.75862 116.244 2.17241C116.864 2.68966 117.587 3.2069 118.103 3.93103C118.826 4.75862 119.239 5.58621 119.653 6.31034L119.859 6.72414C120.066 7.13793 120.272 7.55172 120.272 7.96552L120.375 8.17241C120.582 8.89655 120.685 9.51724 120.789 10.2414C120.789 10.4483 120.892 10.6552 120.892 10.8621C120.995 11.1724 120.995 11.4828 120.995 11.7931C120.995 12 120.995 12.2069 121.098 12.4138C121.202 12.931 121.202 13.3448 121.098 13.6552C120.995 13.8621 120.995 13.8621 120.789 13.9655C120.582 13.9655 120.375 13.9655 120.169 13.9655H117.484C116.658 13.9655 115.728 13.9655 114.902 13.9655C114.592 13.9655 114.386 13.8621 114.282 13.5517C114.282 13.4483 114.179 13.2414 114.179 13.1379C114.179 12.5172 114.076 11.8966 113.869 11.1724C113.663 10.3448 113.353 9.51724 112.733 8.89655C112.423 8.58621 112.01 8.17241 111.494 7.86207C110.771 7.44828 110.151 7.34483 109.428 7.13793C108.809 7.03448 108.292 6.93103 107.673 6.93103C105.504 6.93103 103.335 6.93103 101.166 6.93103C98.9976 6.93103 96.8288 6.93103 94.6601 6.93103C93.7306 6.93103 92.6979 7.03448 91.7684 7.34483C91.1487 7.44828 90.6324 7.75862 90.116 7.96552C89.3931 8.37931 88.98 9 88.5669 9.82759C88.1538 10.8621 88.0505 11.7931 88.0505 12.7241C88.0505 13.7586 88.1538 14.5862 88.3603 15.4138C88.7734 16.4483 89.3931 17.2759 90.3225 17.7931C91.1487 18.2069 91.9749 18.4138 93.0077 18.6207C94.0404 18.7241 95.1765 18.8276 96.2092 18.931L97.1387 19.0345C97.7583 19.0345 98.378 19.1379 98.8943 19.1379H99.4107C99.8238 19.1379 100.34 19.2414 100.753 19.2414C101.476 19.2414 102.096 19.3448 102.715 19.4483C102.922 19.4483 103.232 19.4483 103.438 19.4483C103.645 19.4483 103.748 19.4483 103.955 19.4483C104.471 19.5517 104.988 19.5517 105.401 19.5517C105.917 19.5517 106.537 19.5517 107.053 19.6552C107.363 19.6552 107.569 19.7586 107.879 19.7586H108.086C108.705 19.7586 109.325 19.8621 109.945 19.9655L110.668 20.069C111.494 20.1724 112.32 20.2759 113.043 20.4828L113.456 20.5862C114.386 20.7931 115.315 21.1034 116.141 21.5172C116.348 21.6207 116.658 21.7241 116.864 21.931L117.277 22.1379C117.69 22.3448 118.103 22.6552 118.413 22.9655C118.93 23.3793 119.343 23.8966 119.653 24.3103C119.859 24.5172 120.066 24.8276 120.169 25.0345L120.375 25.4483C120.479 25.7586 120.685 26.069 120.789 26.2759C121.098 27 121.305 27.8276 121.408 28.4483C121.408 28.6552 121.511 29.069 121.511 29.4828C121.511 29.7931 121.615 30 121.615 30.1034C121.718 30.8276 121.718 31.6552 121.718 32.4828C121.718 33.3103 121.615 34.2414 121.408 35.3793C121.305 36.3103 121.098 37.1379 120.789 37.9655C120.685 38.069 120.582 38.4828 120.479 38.7931L120.375 39.1035C120.169 39.5172 119.962 39.931 119.653 40.3448C119.136 41.069 118.517 41.7931 117.794 42.2069C117.071 42.7241 116.244 43.1379 115.418 43.5517C115.005 43.7586 113.456 44.1724 113.353 44.1724C113.043 44.2759 112.217 44.3793 111.804 44.4828L111.391 44.5862C111.081 44.6897 107.776 44.7931 106.846 44.7931H104.678L98.4812 44.8966Z" fill="#EAEAEA"/>
</svg>
