<svg width="123" height="84" viewBox="0 0 123 84" fill="none" xmlns="http://www.w3.org/2000/svg">
<path d="M61.165 25.559C55.0919 25.559 49.0294 25.559 42.9563 25.559C42.9141 25.559 42.8614 25.5485 42.8192 25.559C42.5767 25.6117 42.5135 25.4958 42.5135 25.2641C42.524 23.589 42.5135 21.914 42.5135 20.239C42.5135 19.6807 42.5135 19.1329 42.5029 18.5746C42.5029 18.3744 42.5556 18.3007 42.7665 18.3007C47.7431 18.3007 52.7196 18.3007 57.6856 18.3112C64.7814 18.3112 71.8878 18.3112 78.9836 18.3112C79.1734 18.3112 79.3631 18.3217 79.5529 18.3112C79.7427 18.3007 79.8271 18.3744 79.8271 18.5746C79.8165 20.8079 79.8165 23.0307 79.8165 25.2641C79.8165 25.4853 79.7638 25.5696 79.5108 25.5696C73.406 25.5485 67.2802 25.5485 61.165 25.559Z" fill="#EAEAEA"/>
<path d="M61.1326 7.66055C55.0173 7.66055 48.9021 7.66055 42.7868 7.66055C42.597 7.66055 42.5127 7.61841 42.5127 7.38665C42.5232 5.14277 42.5232 2.89889 42.5127 0.644479C42.5127 0.454856 42.576 0.381113 42.7552 0.381113C42.9555 0.381113 43.1453 0.381113 43.3456 0.381113C55.1755 0.381113 67.0159 0.381113 78.8457 0.381113C79.0566 0.381113 79.278 0.391648 79.4889 0.370579C79.7314 0.349509 79.8263 0.423252 79.8263 0.686618C79.8157 2.80408 79.8157 4.91101 79.8157 7.02847C79.8157 7.65002 79.8157 7.66055 79.2042 7.66055C73.1839 7.65002 67.1635 7.65002 61.1326 7.66055Z" fill="#EAEAEA"/>
<path d="M61.1853 37.4106C67.2373 37.4106 73.2893 37.4106 79.3413 37.4106C79.8157 37.4106 79.8157 37.4106 79.8157 37.8847C79.8157 40.0443 79.8157 42.2039 79.8263 44.3635C79.8263 44.5742 79.7525 44.6585 79.5416 44.6585C79.0355 44.6479 78.5189 44.6479 78.0128 44.6479C66.5203 44.6479 55.0279 44.6479 43.5354 44.6479C43.2824 44.6479 43.0293 44.6585 42.7868 44.6585C42.597 44.6585 42.5127 44.5953 42.5127 44.3951C42.5232 42.1512 42.5232 39.8968 42.5127 37.6529C42.5127 37.4528 42.5865 37.4212 42.7657 37.4212C48.9126 37.4106 55.049 37.4106 61.1853 37.4106Z" fill="#EAEAEA"/>
<path d="M19.1152 25.559C13.0421 25.559 6.97958 25.559 0.906497 25.559C0.864323 25.559 0.811605 25.5485 0.769431 25.559C0.52693 25.6117 0.463669 25.4958 0.463669 25.2641C0.474212 23.589 0.463669 21.914 0.463669 20.239C0.463669 19.6807 0.463669 19.1329 0.453125 18.5746C0.453125 18.3744 0.505843 18.3007 0.716714 18.3007C5.69326 18.3007 10.6698 18.3007 15.6358 18.3112C22.7316 18.3112 29.838 18.3112 36.9338 18.3112C37.1236 18.3112 37.3133 18.3217 37.5031 18.3112C37.6929 18.3007 37.7773 18.3744 37.7773 18.5746C37.7667 20.8079 37.7667 23.0307 37.7667 25.2641C37.7667 25.4853 37.714 25.5696 37.461 25.5696C31.3562 25.5485 25.2304 25.5485 19.1152 25.559Z" fill="#2F79DB"/>
<path d="M19.0847 7.66055C12.9695 7.66055 6.85423 7.66055 0.738976 7.66055C0.549192 7.66055 0.464844 7.61841 0.464844 7.38665C0.475387 5.14277 0.475387 2.89889 0.464844 0.644479C0.464844 0.454856 0.528105 0.381113 0.707345 0.381113C0.907672 0.381113 1.09746 0.381113 1.29778 0.381113C13.1276 0.381113 24.968 0.381113 36.7979 0.381113C37.0088 0.381113 37.2302 0.391648 37.441 0.370579C37.6835 0.349509 37.7784 0.423252 37.7784 0.686618C37.7679 2.80408 37.7679 4.91101 37.7679 7.02847C37.7679 7.65002 37.7679 7.66055 37.1564 7.66055C31.136 7.65002 25.1156 7.65002 19.0847 7.66055Z" fill="#2F79DB"/>
<path d="M7.74649 22.1382C7.74649 28.2534 7.74649 34.3687 7.74649 40.4839C7.74649 40.6737 7.70435 40.7581 7.47259 40.7581C5.22871 40.7475 2.98483 40.7475 0.730417 40.7581C0.540793 40.7581 0.467051 40.6948 0.467051 40.5156C0.467051 40.3152 0.467051 40.1254 0.467051 39.9251C0.46705 28.0953 0.46705 16.2549 0.467049 4.42502C0.467049 4.21415 0.477584 3.99273 0.456515 3.78186C0.435445 3.53936 0.509188 3.44447 0.772554 3.44447C2.89002 3.45501 4.99694 3.45501 7.11441 3.45501C7.73595 3.45501 7.74649 3.45501 7.74649 4.06654C7.73595 10.0869 7.73595 16.1073 7.74649 22.1382Z" fill="#2F79DB"/>
<path d="M19.1375 37.4106C25.1894 37.4106 31.2414 37.4106 37.2934 37.4106C37.7679 37.4106 37.7679 37.4106 37.7679 37.8847C37.7679 40.0443 37.7679 42.2039 37.7784 44.3635C37.7784 44.5742 37.7046 44.6585 37.4938 44.6585C36.9877 44.6479 36.471 44.6479 35.9649 44.6479C24.4725 44.6479 12.98 44.6479 1.48757 44.6479C1.23452 44.6479 0.981477 44.6585 0.738976 44.6585C0.549192 44.6585 0.464844 44.5953 0.464844 44.3951C0.475387 42.1512 0.475387 39.8968 0.464844 37.6529C0.464844 37.4528 0.538649 37.4212 0.717889 37.4212C6.86477 37.4106 13.0011 37.4106 19.1375 37.4106Z" fill="#2F79DB"/>
<path d="M98.9344 44.8966C97.3852 44.8966 95.7329 44.8966 94.1837 44.8966C92.9444 44.8966 91.7051 44.7931 90.6724 44.4828C89.9495 44.3793 89.2266 44.1724 88.6069 43.8621C87.6774 43.5517 86.8512 43.0345 86.025 42.6207C85.6119 42.3103 85.1988 42 84.7857 41.5862C84.0628 40.9655 83.5465 40.2414 83.1334 39.4138C82.617 38.3793 82.2039 37.3448 81.8941 36.2069C81.6875 35.4828 81.5842 34.7586 81.481 33.931C81.481 33.7241 81.3777 33.5172 81.3777 33.3103C81.3777 33.1034 81.2744 32.8966 81.2744 32.6897C81.2744 32.4828 81.2744 32.3793 81.2744 32.1724C81.2744 31.8621 81.2744 31.5517 81.2744 31.2414C81.2744 31.1379 81.481 30.931 81.6875 30.931H84.6825C85.6119 30.931 86.5414 30.931 87.5742 30.931C88.0905 30.931 88.0905 31.1379 88.1938 31.2414C88.2971 31.4483 88.2971 31.6552 88.2971 31.9655V32.069C88.4004 33.1034 88.6069 33.931 88.9167 34.5517C89.3298 35.5862 90.156 36.4138 91.0855 37.0345C92.015 37.5517 92.9444 37.6552 93.8739 37.8621C94.287 37.9655 94.5968 37.9655 94.9067 37.9655H95.6296C97.9016 37.9655 100.174 37.9655 102.446 37.9655C104.718 37.9655 106.887 37.9655 109.159 37.9655C110.501 37.9655 111.534 37.7586 112.567 37.2414C113.496 36.8276 114.116 36.2069 114.529 35.3793C114.942 34.6552 115.045 33.931 115.148 33.3103C115.252 32.3793 115.252 31.4483 115.148 30.6207C115.045 29.7931 114.839 29.1724 114.426 28.5517C114.219 28.1379 113.909 27.8276 113.599 27.5172C113.083 27.1034 112.463 26.7931 111.637 26.5862C111.017 26.3793 110.398 26.2759 109.675 26.1724C108.814 26.1724 107.963 25.9655 107.093 25.9655C101.788 25.9655 96.4181 25.3903 91.1888 24.5172C90.5691 24.4138 90.0528 24.3103 89.5364 24.2069C88.6069 24 87.6774 23.6897 86.8512 23.2759C85.7152 22.7586 84.889 22.1379 84.2694 21.5172C83.6497 20.8966 83.2366 20.2759 82.9268 19.5517C82.617 18.8276 82.3072 18.1034 82.1006 17.1724C81.9973 16.5517 81.8941 15.931 81.7908 15.2069V14.8966C81.6875 14.1724 81.6875 13.3448 81.6875 12.6207V11.7931C81.6875 10.9655 81.7908 10.2414 81.8941 9.41379C82.1006 8.27586 82.3072 7.34483 82.617 6.62069C82.8235 6 83.2366 5.37931 83.5465 4.86207C83.9596 4.03448 84.3727 3.51724 84.7857 3.10345C85.3021 2.68966 85.8185 2.27586 86.4381 1.96552C86.6447 1.86207 86.748 1.75862 86.9545 1.65517C87.1611 1.55172 87.2643 1.44828 87.4709 1.34483L87.6774 1.24138C88.1938 1.03448 88.8135 0.827586 89.3298 0.724138C89.5364 0.724138 89.7429 0.62069 89.8462 0.62069C90.156 0.517241 90.3626 0.413793 90.5691 0.413793C90.7757 0.413793 90.9822 0.310345 91.0855 0.310345C91.292 0.310345 91.4986 0.206897 91.7051 0.206897C92.1182 0.103448 92.5313 0.103448 93.0477 0.103448C93.4608 0.103448 93.8739 0.103448 94.3903 0H94.4936C96.9721 0 99.3475 0 101.826 0H105.75C106.783 0 107.713 0 108.745 0C109.365 0 109.985 0.103448 110.604 0.206897C110.914 0.206897 111.121 0.310345 111.431 0.310345C111.947 0.413793 112.463 0.517241 113.083 0.62069C113.393 0.724138 113.703 0.827586 114.012 0.827586C114.219 0.827586 114.322 0.931034 114.529 1.03448C114.632 1.13793 114.735 1.13793 114.839 1.13793C115.458 1.34483 116.078 1.75862 116.698 2.17241C117.317 2.68966 118.04 3.2069 118.557 3.93103C119.279 4.75862 119.693 5.58621 120.106 6.31034L120.312 6.72414C120.519 7.13793 120.725 7.55172 120.725 7.96552L120.829 8.17241C121.035 8.89655 121.138 9.51724 121.242 10.2414C121.242 10.4483 121.345 10.6552 121.345 10.8621C121.448 11.1724 121.448 11.4828 121.448 11.7931C121.448 12 121.448 12.2069 121.551 12.4138C121.655 12.931 121.655 13.3448 121.551 13.6552C121.448 13.8621 121.448 13.8621 121.242 13.9655C121.035 13.9655 120.829 13.9655 120.622 13.9655H117.937C117.111 13.9655 116.181 13.9655 115.355 13.9655C115.045 13.9655 114.839 13.8621 114.735 13.5517C114.735 13.4483 114.632 13.2414 114.632 13.1379C114.632 12.5172 114.529 11.8966 114.322 11.1724C114.116 10.3448 113.806 9.51724 113.186 8.89655C112.876 8.58621 112.463 8.17241 111.947 7.86207C111.224 7.44828 110.604 7.34483 109.881 7.13793C109.262 7.03448 108.745 6.93103 108.126 6.93103C105.957 6.93103 103.788 6.93103 101.62 6.93103C99.4507 6.93103 97.282 6.93103 95.1132 6.93103C94.1837 6.93103 93.151 7.03448 92.2215 7.34483C91.6019 7.44828 91.0855 7.75862 90.5691 7.96552C89.8462 8.37931 89.4331 9 89.02 9.82759C88.6069 10.8621 88.5036 11.7931 88.5036 12.7241C88.5036 13.7586 88.6069 14.5862 88.8135 15.4138C89.2266 16.4483 89.8462 17.2759 90.7757 17.7931C91.6019 18.2069 92.4281 18.4138 93.4608 18.6207C94.4936 18.7241 95.6296 18.8276 96.6623 18.931L97.5918 19.0345C98.2114 19.0345 98.8311 19.1379 99.3475 19.1379H99.8638C100.277 19.1379 100.793 19.2414 101.206 19.2414C101.929 19.2414 102.549 19.3448 103.169 19.4483C103.375 19.4483 103.685 19.4483 103.892 19.4483C104.098 19.4483 104.201 19.4483 104.408 19.4483C104.924 19.5517 105.441 19.5517 105.854 19.5517C106.37 19.5517 106.99 19.5517 107.506 19.6552C107.816 19.6552 108.023 19.7586 108.332 19.7586H108.539C109.159 19.7586 109.778 19.8621 110.398 19.9655L111.121 20.069C111.947 20.1724 112.773 20.2759 113.496 20.4828L113.909 20.5862C114.839 20.7931 115.768 21.1034 116.594 21.5172C116.801 21.6207 117.111 21.7241 117.317 21.931L117.73 22.1379C118.143 22.3448 118.557 22.6552 118.866 22.9655C119.383 23.3793 119.796 23.8966 120.106 24.3103C120.312 24.5172 120.519 24.8276 120.622 25.0345L120.829 25.4483C120.932 25.7586 121.138 26.069 121.242 26.2759C121.551 27 121.758 27.8276 121.861 28.4483C121.861 28.6552 121.965 29.069 121.965 29.4828C121.965 29.7931 122.068 30 122.068 30.1034C122.171 30.8276 122.171 31.6552 122.171 32.4828C122.171 33.3103 122.068 34.2414 121.861 35.3793C121.758 36.3103 121.551 37.1379 121.242 37.9655C121.138 38.069 121.035 38.4828 120.932 38.7931L120.829 39.1035C120.622 39.5172 120.415 39.931 120.106 40.3448C119.589 41.069 118.97 41.7931 118.247 42.2069C117.524 42.7241 116.698 43.1379 115.871 43.5517C115.458 43.7586 113.909 44.1724 113.806 44.1724C113.496 44.2759 112.67 44.3793 112.257 44.4828L111.844 44.5862C111.534 44.6897 108.229 44.7931 107.3 44.7931H105.131L98.9344 44.8966Z" fill="#C0D446"/>
<path d="M0.0629428 63.8967V53.6332H6.97879V55.4223H2.23292V57.8679H6.62298V59.657H2.23292V62.1076H6.99884V63.8967H0.0629428ZM17.2887 53.6332V63.8967H15.4144L10.9491 57.4369H10.874V63.8967H8.704V53.6332H10.6084L15.0385 60.088H15.1287V53.6332H17.2887ZM20.9358 53.6332L23.4165 61.4311H23.5117L25.9974 53.6332H28.4029L24.8648 63.8967H22.0684L18.5253 53.6332H20.9358ZM31.8082 53.6332V63.8967H29.6382V53.6332H31.8082ZM33.5935 63.8967V53.6332H37.6428C38.4179 53.6332 39.0794 53.7719 39.6274 54.0492C40.1786 54.3231 40.5979 54.7123 40.8852 55.2168C41.1759 55.718 41.3212 56.3077 41.3212 56.9859C41.3212 57.6675 41.1742 58.2538 40.8802 58.7449C40.5862 59.2327 40.1603 59.6069 39.6023 59.8675C39.0477 60.1281 38.3762 60.2584 37.5877 60.2584H34.8765V58.5144H37.2369C37.6512 58.5144 37.9953 58.4576 38.2693 58.344C38.5432 58.2304 38.747 58.06 38.8807 57.8328C39.0176 57.6056 39.0861 57.3233 39.0861 56.9859C39.0861 56.6451 39.0176 56.3578 38.8807 56.1239C38.747 55.89 38.5415 55.713 38.2642 55.5927C37.9903 55.4691 37.6445 55.4073 37.2269 55.4073H35.7635V63.8967H33.5935ZM39.1362 59.226L41.6871 63.8967H39.2916L36.7959 59.226H39.1362ZM52.2864 58.765C52.2864 59.8842 52.0742 60.8364 51.6499 61.6215C51.229 62.4066 50.6543 63.0064 49.926 63.4206C49.201 63.8316 48.3858 64.0371 47.4804 64.0371C46.5683 64.0371 45.7497 63.8299 45.0247 63.4156C44.2997 63.0013 43.7268 62.4016 43.3058 61.6165C42.8848 60.8314 42.6743 59.8809 42.6743 58.765C42.6743 57.6457 42.8848 56.6936 43.3058 55.9084C43.7268 55.1233 44.2997 54.5253 45.0247 54.1143C45.7497 53.7 46.5683 53.4929 47.4804 53.4929C48.3858 53.4929 49.201 53.7 49.926 54.1143C50.6543 54.5253 51.229 55.1233 51.6499 55.9084C52.0742 56.6936 52.2864 57.6457 52.2864 58.765ZM50.0863 58.765C50.0863 58.04 49.9778 57.4286 49.7606 56.9308C49.5468 56.433 49.2444 56.0554 48.8535 55.7982C48.4626 55.5409 48.0049 55.4123 47.4804 55.4123C46.9558 55.4123 46.4981 55.5409 46.1072 55.7982C45.7163 56.0554 45.4123 56.433 45.1951 56.9308C44.9813 57.4286 44.8744 58.04 44.8744 58.765C44.8744 59.49 44.9813 60.1014 45.1951 60.5992C45.4123 61.097 45.7163 61.4745 46.1072 61.7318C46.4981 61.989 46.9558 62.1177 47.4804 62.1177C48.0049 62.1177 48.4626 61.989 48.8535 61.7318C49.2444 61.4745 49.5468 61.097 49.7606 60.5992C49.9778 60.1014 50.0863 59.49 50.0863 58.765ZM62.4785 53.6332V63.8967H60.6042L56.139 57.4369H56.0638V63.8967H53.8938V53.6332H55.7982L60.2283 60.088H60.3185V53.6332H62.4785ZM64.2713 53.6332H66.9475L69.774 60.529H69.8942L72.7207 53.6332H75.3968V63.8967H73.292V57.2164H73.2068L70.5507 63.8466H69.1175L66.4614 57.1914H66.3762V63.8967H64.2713V53.6332ZM77.1847 63.8967V53.6332H84.1005V55.4223H79.3547V57.8679H83.7447V59.657H79.3547V62.1076H84.1206V63.8967H77.1847ZM94.4104 53.6332V63.8967H92.5361L88.0709 57.4369H87.9957V63.8967H85.8257V53.6332H87.7301L92.1603 60.088H92.2505V53.6332H94.4104ZM95.8124 55.4223V53.6332H104.242V55.4223H101.099V63.8967H98.9546V55.4223H95.8124ZM106.145 63.8967H103.819L107.363 53.6332H110.159L113.697 63.8967H111.372L108.801 55.9786H108.721L106.145 63.8967ZM105.999 59.8625H111.492V61.5564H105.999V59.8625ZM114.932 63.8967V53.6332H117.102V62.1076H121.503V63.8967H114.932Z" fill="#EAEAEA"/>
<path d="M0.000420477 80.8967V71.3526H6.43155V73.0163H2.0183V75.2905H6.10067V76.9542H2.0183V79.233H6.45019V80.8967H0.000420477ZM16.0188 71.3526V80.8967H14.2759L10.1236 74.8897H10.0537V80.8967H8.03583V71.3526H9.80672L13.9264 77.3549H14.0103V71.3526H16.0188ZM17.686 80.8967V71.3526H24.1171V73.0163H19.7039V75.2905H23.7863V76.9542H19.7039V79.233H24.1358V80.8967H17.686ZM25.7214 80.8967V71.3526H29.4869C30.2077 71.3526 30.8228 71.4815 31.3324 71.7394C31.845 71.9941 32.2349 72.3561 32.5021 72.8252C32.7724 73.2912 32.9075 73.8396 32.9075 74.4703C32.9075 75.1041 32.7708 75.6493 32.4974 76.106C32.224 76.5596 31.8279 76.9076 31.3091 77.1499C30.7933 77.3922 30.1688 77.5134 29.4356 77.5134H26.9145V75.8916H29.1094C29.4947 75.8916 29.8147 75.8388 30.0694 75.7332C30.3242 75.6276 30.5137 75.4691 30.638 75.2578C30.7654 75.0466 30.829 74.7841 30.829 74.4703C30.829 74.1534 30.7654 73.8862 30.638 73.6687C30.5137 73.4512 30.3226 73.2866 30.0648 73.1747C29.81 73.0598 29.4885 73.0023 29.1001 73.0023H27.7393V80.8967H25.7214ZM30.8757 76.5534L33.2477 80.8967H31.0201L28.6993 76.5534H30.8757ZM40.6621 74.4376C40.5969 74.2108 40.5053 74.0105 40.3872 73.8365C40.2691 73.6594 40.1247 73.5103 39.9538 73.3891C39.786 73.2648 39.5934 73.1701 39.3759 73.1048C39.1616 73.0396 38.9239 73.0069 38.6629 73.0069C38.1751 73.0069 37.7464 73.1281 37.3767 73.3704C37.0101 73.6128 36.7242 73.9654 36.5192 74.4283C36.3141 74.8881 36.2116 75.4505 36.2116 76.1153C36.2116 76.7802 36.3126 77.3456 36.5145 77.8117C36.7165 78.2777 37.0023 78.6334 37.372 78.8788C37.7417 79.1212 38.1782 79.2423 38.6815 79.2423C39.1383 79.2423 39.5282 79.1616 39.8513 79C40.1775 78.8354 40.426 78.6039 40.5969 78.3056C40.7709 78.0074 40.8579 77.6548 40.8579 77.2478L41.268 77.3083H38.8074V75.7891H42.8012V76.9915C42.8012 77.8303 42.6241 78.5511 42.2699 79.1538C41.9158 79.7534 41.428 80.2163 40.8066 80.5426C40.1852 80.8657 39.4738 81.0272 38.6722 81.0272C37.7775 81.0272 36.9914 80.8299 36.3141 80.4354C35.6369 80.0377 35.1087 79.4738 34.7297 78.7437C34.3537 78.0105 34.1658 77.1406 34.1658 76.134C34.1658 75.3604 34.2776 74.6707 34.5013 74.0648C34.7281 73.4559 35.045 72.9402 35.452 72.5176C35.859 72.0951 36.3328 71.7735 36.8734 71.553C37.414 71.3324 37.9996 71.2221 38.6303 71.2221C39.1709 71.2221 39.6742 71.3013 40.1402 71.4598C40.6062 71.6151 41.0194 71.8357 41.3798 72.1215C41.7433 72.4073 42.04 72.7475 42.2699 73.1421C42.4998 73.5336 42.6474 73.9654 42.7127 74.4376H40.6621ZM43.3732 71.3526H45.6335L47.8098 75.4629H47.903L50.0793 71.3526H52.3395L48.8583 77.5227V80.8967H46.8544V77.5227L43.3732 71.3526ZM61.6565 74.0974C61.6192 73.7215 61.4592 73.4295 61.1765 73.2213C60.8938 73.0132 60.5101 72.9091 60.0254 72.9091C59.6961 72.9091 59.418 72.9557 59.1912 73.0489C58.9644 73.139 58.7905 73.2648 58.6693 73.4264C58.5512 73.5879 58.4922 73.7712 58.4922 73.9763C58.486 74.1472 58.5217 74.2963 58.5994 74.4237C58.6802 74.551 58.7905 74.6613 58.9303 74.7545C59.0701 74.8446 59.2316 74.9239 59.4149 74.9922C59.5982 75.0575 59.794 75.1134 60.0021 75.16L60.8596 75.365C61.2759 75.4582 61.6581 75.5825 62.006 75.7378C62.354 75.8932 62.6554 76.0843 62.9101 76.3111C63.1649 76.5379 63.3622 76.805 63.502 77.1126C63.6449 77.4202 63.7179 77.7728 63.721 78.1705C63.7179 78.7546 63.5688 79.261 63.2736 79.6897C62.9816 80.1154 62.559 80.4462 62.006 80.6824C61.4561 80.9154 60.7928 81.0319 60.0161 81.0319C59.2456 81.0319 58.5745 80.9138 58.0029 80.6777C57.4343 80.4416 56.9901 80.0921 56.6701 79.6291C56.3532 79.1631 56.1869 78.5868 56.1714 77.9002H58.1241C58.1458 78.2202 58.2375 78.4874 58.399 78.7018C58.5637 78.913 58.7827 79.073 59.0561 79.1818C59.3326 79.2874 59.6448 79.3402 59.9928 79.3402C60.3346 79.3402 60.6313 79.2905 60.8829 79.1911C61.1377 79.0917 61.335 78.9534 61.4748 78.7763C61.6146 78.5992 61.6845 78.3957 61.6845 78.1658C61.6845 77.9515 61.6208 77.7713 61.4934 77.6252C61.3691 77.4792 61.1858 77.3549 60.9435 77.2524C60.7043 77.1499 60.4107 77.0567 60.0627 76.9728L59.0235 76.7118C58.2188 76.5161 57.5835 76.2101 57.1174 75.7938C56.6514 75.3775 56.42 74.8167 56.4231 74.1114C56.42 73.5336 56.5737 73.0287 56.8844 72.5968C57.1982 72.165 57.6285 71.8279 58.1753 71.5856C58.7221 71.3432 59.3435 71.2221 60.0394 71.2221C60.7478 71.2221 61.366 71.3432 61.8942 71.5856C62.4255 71.8279 62.8387 72.165 63.1338 72.5968C63.429 73.0287 63.5812 73.5289 63.5905 74.0974H61.6565ZM65.0783 80.8967V71.3526H71.5094V73.0163H67.0962V75.2905H71.1785V76.9542H67.0962V79.233H71.5281V80.8967H65.0783ZM73.1137 80.8967V71.3526H76.8792C77.6 71.3526 78.2151 71.4815 78.7246 71.7394C79.2373 71.9941 79.6272 72.3561 79.8943 72.8252C80.1646 73.2912 80.2998 73.8396 80.2998 74.4703C80.2998 75.1041 80.1631 75.6493 79.8897 76.106C79.6163 76.5596 79.2202 76.9076 78.7013 77.1499C78.1856 77.3922 77.5611 77.5134 76.8279 77.5134H74.3067V75.8916H76.5017C76.8869 75.8916 77.2069 75.8388 77.4617 75.7332C77.7165 75.6276 77.906 75.4691 78.0303 75.2578C78.1576 75.0466 78.2213 74.7841 78.2213 74.4703C78.2213 74.1534 78.1576 73.8862 78.0303 73.6687C77.906 73.4512 77.7149 73.2866 77.457 73.1747C77.2023 73.0598 76.8807 73.0023 76.4924 73.0023H75.1316V80.8967H73.1137ZM78.2679 76.5534L80.64 80.8967H78.4124L76.0916 76.5534H78.2679ZM83.1938 71.3526L85.5006 78.6039H85.5892L87.9006 71.3526H90.1375L86.8474 80.8967H84.247L80.9522 71.3526H83.1938ZM93.3042 71.3526V80.8967H91.2863V71.3526H93.3042ZM103.385 74.694H101.344C101.307 74.4299 101.231 74.1953 101.116 73.9903C101.001 73.7821 100.853 73.605 100.673 73.459C100.493 73.313 100.285 73.2011 100.049 73.1235C99.8157 73.0458 99.5625 73.0069 99.2891 73.0069C98.7951 73.0069 98.3648 73.1297 97.9982 73.3751C97.6316 73.6174 97.3473 73.9716 97.1454 74.4376C96.9434 74.9006 96.8425 75.4629 96.8425 76.1246C96.8425 76.805 96.9434 77.3767 97.1454 77.8396C97.3504 78.3025 97.6363 78.652 98.0029 78.8882C98.3695 79.1243 98.7935 79.2423 99.2751 79.2423C99.5454 79.2423 99.7955 79.2066 100.025 79.1352C100.258 79.0637 100.465 78.9596 100.645 78.8229C100.825 78.6831 100.975 78.5138 101.093 78.315C101.214 78.1161 101.298 77.8893 101.344 77.6346L103.385 77.6439C103.333 78.0819 103.201 78.5045 102.989 78.9115C102.781 79.3154 102.5 79.6773 102.146 79.9973C101.795 80.3142 101.375 80.5659 100.888 80.7523C100.403 80.9356 99.8545 81.0272 99.2425 81.0272C98.3912 81.0272 97.63 80.8346 96.959 80.4493C96.291 80.0641 95.7628 79.5064 95.3745 78.7763C94.9892 78.0462 94.7966 77.1623 94.7966 76.1246C94.7966 75.0839 94.9923 74.1984 95.3838 73.4683C95.7753 72.7382 96.3065 72.1821 96.9776 71.7999C97.6487 71.4147 98.4036 71.2221 99.2425 71.2221C99.7955 71.2221 100.308 71.2997 100.78 71.4551C101.256 71.6104 101.677 71.8372 102.043 72.1355C102.41 72.4306 102.708 72.7926 102.938 73.2213C103.171 73.6501 103.32 74.1409 103.385 74.694ZM104.832 80.8967V71.3526H111.264V73.0163H106.85V75.2905H110.933V76.9542H106.85V79.233H111.282V80.8967H104.832ZM118.045 74.0974C118.008 73.7215 117.848 73.4295 117.565 73.2213C117.283 73.0132 116.899 72.9091 116.414 72.9091C116.085 72.9091 115.807 72.9557 115.58 73.0489C115.353 73.139 115.179 73.2648 115.058 73.4264C114.94 73.5879 114.881 73.7712 114.881 73.9763C114.875 74.1472 114.911 74.2963 114.988 74.4237C115.069 74.551 115.179 74.6613 115.319 74.7545C115.459 74.8446 115.62 74.9239 115.804 74.9922C115.987 75.0575 116.183 75.1134 116.391 75.16L117.248 75.365C117.665 75.4582 118.047 75.5825 118.395 75.7378C118.743 75.8932 119.044 76.0843 119.299 76.3111C119.554 76.5379 119.751 76.805 119.891 77.1126C120.034 77.4202 120.107 77.7728 120.11 78.1705C120.107 78.7546 119.958 79.261 119.662 79.6897C119.37 80.1154 118.948 80.4462 118.395 80.6824C117.845 80.9154 117.182 81.0319 116.405 81.0319C115.634 81.0319 114.963 80.9138 114.392 80.6777C113.823 80.4416 113.379 80.0921 113.059 79.6291C112.742 79.1631 112.576 78.5868 112.56 77.9002H114.513C114.535 78.2202 114.626 78.4874 114.788 78.7018C114.953 78.913 115.172 79.073 115.445 79.1818C115.721 79.2874 116.034 79.3402 116.382 79.3402C116.723 79.3402 117.02 79.2905 117.272 79.1911C117.527 79.0917 117.724 78.9534 117.864 78.7763C118.003 78.5992 118.073 78.3957 118.073 78.1658C118.073 77.9515 118.01 77.7713 117.882 77.6252C117.758 77.4792 117.575 77.3549 117.332 77.2524C117.093 77.1499 116.8 77.0567 116.452 76.9728L115.412 76.7118C114.608 76.5161 113.972 76.2101 113.506 75.7938C113.04 75.3775 112.809 74.8167 112.812 74.1114C112.809 73.5336 112.963 73.0287 113.273 72.5968C113.587 72.165 114.017 71.8279 114.564 71.5856C115.111 71.3432 115.732 71.2221 116.428 71.2221C117.137 71.2221 117.755 71.3432 118.283 71.5856C118.814 71.8279 119.228 72.165 119.523 72.5968C119.818 73.0287 119.97 73.5289 119.979 74.0974H118.045Z" fill="#EAEAEA"/>
</svg>
