<svg width="122" height="45" viewBox="0 0 122 45" fill="none" xmlns="http://www.w3.org/2000/svg">
<path d="M60.7119 25.5591C54.6388 25.5591 48.5763 25.5591 42.5032 25.5591C42.461 25.5591 42.4083 25.5486 42.3661 25.5591C42.1236 25.6118 42.0603 25.4959 42.0603 25.2642C42.0709 23.5892 42.0603 21.9142 42.0603 20.2392C42.0603 19.6808 42.0603 19.133 42.0498 18.5747C42.0498 18.3745 42.1025 18.3008 42.3134 18.3008C47.2899 18.3008 52.2665 18.3008 57.2325 18.3113C64.3283 18.3113 71.4347 18.3113 78.5305 18.3113C78.7202 18.3113 78.91 18.3218 79.0998 18.3113C79.2896 18.3008 79.3739 18.3745 79.3739 18.5747C79.3634 20.808 79.3634 23.0308 79.3634 25.2642C79.3634 25.4854 79.3107 25.5697 79.0576 25.5697C72.9529 25.5486 66.8271 25.5486 60.7119 25.5591Z" fill="#EAEAEA"/>
<path d="M60.6795 7.66055C54.5642 7.66055 48.449 7.66055 42.3337 7.66055C42.1439 7.66055 42.0596 7.61841 42.0596 7.38665C42.0701 5.14277 42.0701 2.89889 42.0596 0.644479C42.0596 0.454856 42.1228 0.381113 42.3021 0.381113C42.5024 0.381113 42.6922 0.381113 42.8925 0.381113C54.7224 0.381113 66.5628 0.381113 78.3926 0.381113C78.6035 0.381113 78.8249 0.391648 79.0358 0.370579C79.2783 0.349509 79.3732 0.423252 79.3732 0.686618C79.3626 2.80408 79.3626 4.91101 79.3626 7.02847C79.3626 7.65002 79.3626 7.66055 78.7511 7.66055C72.7307 7.65002 66.7104 7.65002 60.6795 7.66055Z" fill="#EAEAEA"/>
<path d="M60.7332 37.4106C66.7851 37.4106 72.8371 37.4106 78.8891 37.4106C79.3636 37.4106 79.3636 37.4106 79.3636 37.8847C79.3636 40.0443 79.3636 42.2039 79.3741 44.3635C79.3741 44.5742 79.3003 44.6585 79.0895 44.6585C78.5834 44.6479 78.0667 44.6479 77.5606 44.6479C66.0682 44.6479 54.5757 44.6479 43.0833 44.6479C42.8302 44.6479 42.5772 44.6585 42.3347 44.6585C42.1449 44.6585 42.0605 44.5953 42.0605 44.3951C42.0711 42.1512 42.0711 39.8968 42.0605 37.6529C42.0605 37.4528 42.1344 37.4212 42.3136 37.4212C48.4605 37.4106 54.5968 37.4106 60.7332 37.4106Z" fill="#EAEAEA"/>
<path d="M18.6621 25.5591C12.589 25.5591 6.52645 25.5591 0.453372 25.5591C0.411198 25.5591 0.35848 25.5486 0.316306 25.5591C0.0738048 25.6118 0.0105435 25.4959 0.0105435 25.2642C0.0210871 23.5892 0.0105435 21.9142 0.0105435 20.2392C0.0105435 19.6808 0.0105435 19.133 0 18.5747C0 18.3745 0.0527177 18.3008 0.263589 18.3008C5.24014 18.3008 10.2167 18.3008 15.1827 18.3113C22.2785 18.3113 29.3848 18.3113 36.4806 18.3113C36.6704 18.3113 36.8602 18.3218 37.05 18.3113C37.2398 18.3008 37.3241 18.3745 37.3241 18.5747C37.3136 20.808 37.3136 23.0308 37.3136 25.2642C37.3136 25.4854 37.2609 25.5697 37.0078 25.5697C30.9031 25.5486 24.7773 25.5486 18.6621 25.5591Z" fill="#EAEAEA"/>
<path d="M18.6316 7.66055C12.5164 7.66055 6.4011 7.66055 0.285851 7.66055C0.0960671 7.66055 0.0117188 7.61841 0.0117188 7.38665C0.0222623 5.14277 0.0222623 2.89889 0.0117188 0.644479C0.0117188 0.454856 0.07498 0.381113 0.25422 0.381113C0.454547 0.381113 0.644331 0.381113 0.844658 0.381113C12.6745 0.381113 24.5149 0.381113 36.3448 0.381113C36.5556 0.381113 36.777 0.391648 36.9879 0.370579C37.2304 0.349509 37.3253 0.423252 37.3253 0.686618C37.3148 2.80408 37.3148 4.91101 37.3148 7.02847C37.3148 7.65002 37.3148 7.66055 36.7032 7.66055C30.6829 7.65002 24.6625 7.65002 18.6316 7.66055Z" fill="#EAEAEA"/>
<path d="M7.29336 22.1382C7.29336 28.2534 7.29336 34.3687 7.29336 40.4839C7.29336 40.6737 7.25123 40.7581 7.01946 40.7581C4.77558 40.7475 2.53171 40.7475 0.277292 40.7581C0.0876684 40.7581 0.0139259 40.6948 0.0139259 40.5156C0.0139259 40.3152 0.0139259 40.1254 0.0139259 39.9251C0.0139253 28.0953 0.0139248 16.2549 0.0139243 4.42502C0.0139243 4.21415 0.0244589 3.99273 0.00338964 3.78186C-0.0176797 3.53936 0.0560628 3.44447 0.319429 3.44447C2.43689 3.45501 4.54382 3.45501 6.66128 3.45501C7.28283 3.45501 7.29336 3.45501 7.29336 4.06654C7.28283 10.0869 7.28283 16.1073 7.29336 22.1382Z" fill="#EAEAEA"/>
<path d="M18.6843 37.4106C24.7363 37.4106 30.7883 37.4106 36.8403 37.4106C37.3148 37.4106 37.3148 37.4106 37.3148 37.8847C37.3148 40.0443 37.3148 42.2039 37.3253 44.3635C37.3253 44.5742 37.2515 44.6585 37.0406 44.6585C36.5345 44.6479 36.0179 44.6479 35.5118 44.6479C24.0194 44.6479 12.5269 44.6479 1.03444 44.6479C0.781397 44.6479 0.528352 44.6585 0.285851 44.6585C0.0960671 44.6585 0.0117188 44.5953 0.0117188 44.3951C0.0222623 42.1512 0.0222623 39.8968 0.0117188 37.6529C0.0117188 37.4528 0.0855235 37.4212 0.264764 37.4212C6.41165 37.4106 12.548 37.4106 18.6843 37.4106Z" fill="#EAEAEA"/>
<path d="M98.4812 44.8966C96.9321 44.8966 95.2797 44.8966 93.7306 44.8966C92.4913 44.8966 91.252 44.7931 90.2193 44.4828C89.4964 44.3793 88.7734 44.1724 88.1538 43.8621C87.2243 43.5517 86.3981 43.0345 85.5719 42.6207C85.1588 42.3103 84.7457 42 84.3326 41.5862C83.6097 40.9655 83.0933 40.2414 82.6802 39.4138C82.1639 38.3793 81.7508 37.3448 81.4409 36.2069C81.2344 35.4828 81.1311 34.7586 81.0278 33.931C81.0278 33.7241 80.9246 33.5172 80.9246 33.3103C80.9246 33.1034 80.8213 32.8966 80.8213 32.6897C80.8213 32.4828 80.8213 32.3793 80.8213 32.1724C80.8213 31.8621 80.8213 31.5517 80.8213 31.2414C80.8213 31.1379 81.0278 30.931 81.2344 30.931H84.2293C85.1588 30.931 86.0883 30.931 87.121 30.931C87.6374 30.931 87.6374 31.1379 87.7407 31.2414C87.844 31.4483 87.844 31.6552 87.844 31.9655V32.069C87.9472 33.1034 88.1538 33.931 88.4636 34.5517C88.8767 35.5862 89.7029 36.4138 90.6324 37.0345C91.5618 37.5517 92.4913 37.6552 93.4208 37.8621C93.8339 37.9655 94.1437 37.9655 94.4535 37.9655H95.1765C97.4485 37.9655 99.7205 37.9655 101.993 37.9655C104.265 37.9655 106.433 37.9655 108.705 37.9655C110.048 37.9655 111.081 37.7586 112.113 37.2414C113.043 36.8276 113.663 36.2069 114.076 35.3793C114.489 34.6552 114.592 33.931 114.695 33.3103C114.799 32.3793 114.799 31.4483 114.695 30.6207C114.592 29.7931 114.386 29.1724 113.972 28.5517C113.766 28.1379 113.456 27.8276 113.146 27.5172C112.63 27.1034 112.01 26.7931 111.184 26.5862C110.564 26.3793 109.945 26.2759 109.222 26.1724C108.361 26.1724 107.51 25.9655 106.64 25.9655C101.335 25.9655 95.965 25.3903 90.7356 24.5172C90.116 24.4138 89.5996 24.3103 89.0833 24.2069C88.1538 24 87.2243 23.6897 86.3981 23.2759C85.2621 22.7586 84.4359 22.1379 83.8163 21.5172C83.1966 20.8966 82.7835 20.2759 82.4737 19.5517C82.1639 18.8276 81.854 18.1034 81.6475 17.1724C81.5442 16.5517 81.4409 15.931 81.3377 15.2069V14.8966C81.2344 14.1724 81.2344 13.3448 81.2344 12.6207V11.7931C81.2344 10.9655 81.3377 10.2414 81.4409 9.41379C81.6475 8.27586 81.854 7.34483 82.1639 6.62069C82.3704 6 82.7835 5.37931 83.0933 4.86207C83.5064 4.03448 83.9195 3.51724 84.3326 3.10345C84.849 2.68966 85.3654 2.27586 85.985 1.96552C86.1916 1.86207 86.2948 1.75862 86.5014 1.65517C86.7079 1.55172 86.8112 1.44828 87.0178 1.34483L87.2243 1.24138C87.7407 1.03448 88.3603 0.827586 88.8767 0.724138C89.0833 0.724138 89.2898 0.62069 89.3931 0.62069C89.7029 0.517241 89.9095 0.413793 90.116 0.413793C90.3225 0.413793 90.5291 0.310345 90.6324 0.310345C90.8389 0.310345 91.0455 0.206897 91.252 0.206897C91.6651 0.103448 92.0782 0.103448 92.5946 0.103448C93.0077 0.103448 93.4208 0.103448 93.9372 0H94.0404C96.519 0 98.8943 0 101.373 0H105.297C106.33 0 107.26 0 108.292 0C108.912 0 109.532 0.103448 110.151 0.206897C110.461 0.206897 110.668 0.310345 110.977 0.310345C111.494 0.413793 112.01 0.517241 112.63 0.62069C112.94 0.724138 113.25 0.827586 113.559 0.827586C113.766 0.827586 113.869 0.931034 114.076 1.03448C114.179 1.13793 114.282 1.13793 114.386 1.13793C115.005 1.34483 115.625 1.75862 116.244 2.17241C116.864 2.68966 117.587 3.2069 118.103 3.93103C118.826 4.75862 119.239 5.58621 119.653 6.31034L119.859 6.72414C120.066 7.13793 120.272 7.55172 120.272 7.96552L120.375 8.17241C120.582 8.89655 120.685 9.51724 120.789 10.2414C120.789 10.4483 120.892 10.6552 120.892 10.8621C120.995 11.1724 120.995 11.4828 120.995 11.7931C120.995 12 120.995 12.2069 121.098 12.4138C121.202 12.931 121.202 13.3448 121.098 13.6552C120.995 13.8621 120.995 13.8621 120.789 13.9655C120.582 13.9655 120.375 13.9655 120.169 13.9655H117.484C116.658 13.9655 115.728 13.9655 114.902 13.9655C114.592 13.9655 114.386 13.8621 114.282 13.5517C114.282 13.4483 114.179 13.2414 114.179 13.1379C114.179 12.5172 114.076 11.8966 113.869 11.1724C113.663 10.3448 113.353 9.51724 112.733 8.89655C112.423 8.58621 112.01 8.17241 111.494 7.86207C110.771 7.44828 110.151 7.34483 109.428 7.13793C108.809 7.03448 108.292 6.93103 107.673 6.93103C105.504 6.93103 103.335 6.93103 101.166 6.93103C98.9976 6.93103 96.8288 6.93103 94.6601 6.93103C93.7306 6.93103 92.6979 7.03448 91.7684 7.34483C91.1487 7.44828 90.6324 7.75862 90.116 7.96552C89.3931 8.37931 88.98 9 88.5669 9.82759C88.1538 10.8621 88.0505 11.7931 88.0505 12.7241C88.0505 13.7586 88.1538 14.5862 88.3603 15.4138C88.7734 16.4483 89.3931 17.2759 90.3225 17.7931C91.1487 18.2069 91.9749 18.4138 93.0077 18.6207C94.0404 18.7241 95.1765 18.8276 96.2092 18.931L97.1387 19.0345C97.7583 19.0345 98.378 19.1379 98.8943 19.1379H99.4107C99.8238 19.1379 100.34 19.2414 100.753 19.2414C101.476 19.2414 102.096 19.3448 102.715 19.4483C102.922 19.4483 103.232 19.4483 103.438 19.4483C103.645 19.4483 103.748 19.4483 103.955 19.4483C104.471 19.5517 104.988 19.5517 105.401 19.5517C105.917 19.5517 106.537 19.5517 107.053 19.6552C107.363 19.6552 107.569 19.7586 107.879 19.7586H108.086C108.705 19.7586 109.325 19.8621 109.945 19.9655L110.668 20.069C111.494 20.1724 112.32 20.2759 113.043 20.4828L113.456 20.5862C114.386 20.7931 115.315 21.1034 116.141 21.5172C116.348 21.6207 116.658 21.7241 116.864 21.931L117.277 22.1379C117.69 22.3448 118.103 22.6552 118.413 22.9655C118.93 23.3793 119.343 23.8966 119.653 24.3103C119.859 24.5172 120.066 24.8276 120.169 25.0345L120.375 25.4483C120.479 25.7586 120.685 26.069 120.789 26.2759C121.098 27 121.305 27.8276 121.408 28.4483C121.408 28.6552 121.511 29.069 121.511 29.4828C121.511 29.7931 121.615 30 121.615 30.1034C121.718 30.8276 121.718 31.6552 121.718 32.4828C121.718 33.3103 121.615 34.2414 121.408 35.3793C121.305 36.3103 121.098 37.1379 120.789 37.9655C120.685 38.069 120.582 38.4828 120.479 38.7931L120.375 39.1035C120.169 39.5172 119.962 39.931 119.653 40.3448C119.136 41.069 118.517 41.7931 117.794 42.2069C117.071 42.7241 116.244 43.1379 115.418 43.5517C115.005 43.7586 113.456 44.1724 113.353 44.1724C113.043 44.2759 112.217 44.3793 111.804 44.4828L111.391 44.5862C111.081 44.6897 107.776 44.7931 106.846 44.7931H104.678L98.4812 44.8966Z" fill="#EAEAEA"/>
</svg>
