<svg width="508" height="462" viewBox="0 0 508 462" fill="none" xmlns="http://www.w3.org/2000/svg">
<path d="M189.977 37.5355C175.261 52.2517 160.678 59.0839 139.698 59.0839C121.379 59.0839 95.3158 55.531 81 69.9672C66.7974 84.2893 70.3344 110.245 70.3344 128.447C70.3344 149.428 63.5016 164.011 48.7851 178.728C24.2619 203.251 12.0002 215.513 12 230.749C12.0004 245.986 24.2622 258.249 48.7857 282.772C65.2716 299.258 70.3344 309.903 70.3344 333.052C70.3344 351.371 66.7816 377.434 81.2183 391.75C95.5402 405.952 121.496 402.415 139.697 402.415C162.04 402.415 172.8 406.786 188.745 422.732C202.323 436.31 220.525 460.75 242.001 460.75C263.476 460.75 281.677 436.31 295.255 422.732C311.2 406.786 321.96 402.415 344.303 402.415C362.504 402.415 388.46 405.952 402.782 391.75C417.218 377.434 413.666 351.371 413.666 333.052C413.666 309.903 418.728 299.257 435.214 282.772C459.738 258.249 472 245.986 472 230.749C472 215.513 459.738 203.251 435.215 178.728C418.729 162.242 413.666 151.597 413.666 128.447C413.666 110.129 417.218 84.0659 402.783 69.75C388.461 55.5468 362.505 59.0839 344.302 59.0839C323.316 59.0839 308.736 52.2485 294.023 37.5355C269.499 13.0118 257.237 0.750004 242 0.75C226.763 0.750006 214.501 13.0118 189.977 37.5355Z" fill="white"/>
<path d="M402.782 391.75H403M402.782 391.75C388.46 405.952 362.504 402.415 344.303 402.415C321.96 402.415 311.2 406.786 295.255 422.732C281.677 436.31 263.476 460.75 242.001 460.75C220.525 460.75 202.323 436.31 188.745 422.732C172.8 406.786 162.04 402.415 139.697 402.415C121.496 402.415 95.5402 405.952 81.2183 391.75C66.7816 377.434 70.3344 351.371 70.3344 333.052C70.3344 309.903 65.2716 299.258 48.7857 282.772C24.2622 258.249 12.0004 245.986 12 230.749C12.0002 215.513 24.2619 203.251 48.7851 178.728C63.5016 164.011 70.3344 149.428 70.3344 128.447C70.3344 110.245 66.7974 84.2893 81 69.9672C95.3158 55.531 121.379 59.0839 139.698 59.0839C160.678 59.0839 175.261 52.2517 189.977 37.5355C214.501 13.0118 226.763 0.750006 242 0.75C257.237 0.750004 269.499 13.0118 294.023 37.5355C308.736 52.2485 323.316 59.0839 344.302 59.0839C362.505 59.0839 388.461 55.5468 402.783 69.75C417.218 84.0659 413.666 110.129 413.666 128.447C413.666 151.597 418.729 162.242 435.215 178.728C459.738 203.251 472 215.513 472 230.749C472 245.986 459.738 258.249 435.214 282.772C418.728 299.257 413.666 309.903 413.666 333.052C413.666 351.371 417.218 377.434 402.782 391.75Z" stroke="#162A45" stroke-width="1.5"/>
<path d="M143.158 221.324V170.02L146.5 177.697L132.951 184.11L130.332 170.381L148.307 161.619H158.242V221.324H143.158ZM131.597 225.75V212.201H170.075V225.75H131.597ZM205.17 226.653C199.51 226.653 194.662 225.359 190.628 222.769C186.654 220.18 183.613 216.477 181.505 211.659C179.398 206.782 178.344 200.941 178.344 194.136C178.344 187.332 179.398 181.521 181.505 176.704C183.613 171.826 186.654 168.093 190.628 165.503C194.662 162.914 199.51 161.619 205.17 161.619C210.831 161.619 215.678 162.914 219.712 165.503C223.747 168.093 226.818 171.826 228.926 176.704C231.033 181.521 232.087 187.332 232.087 194.136C232.087 200.941 231.033 206.782 228.926 211.659C226.818 216.477 223.747 220.18 219.712 222.769C215.678 225.359 210.831 226.653 205.17 226.653ZM205.17 213.646C209.084 213.646 212.095 211.96 214.203 208.588C216.37 205.216 217.454 200.399 217.454 194.136C217.454 187.693 216.37 182.755 214.203 179.323C212.095 175.831 209.084 174.084 205.17 174.084C201.256 174.084 198.215 175.831 196.047 179.323C193.94 182.755 192.886 187.693 192.886 194.136C192.886 200.399 193.94 205.216 196.047 208.588C198.215 211.96 201.256 213.646 205.17 213.646ZM277.079 246.525L288.008 220.782L288.189 228.189L265.066 177.788H281.415L291.531 201.904C292.073 203.109 292.585 204.403 293.067 205.788C293.548 207.173 293.91 208.498 294.151 209.763L292.163 210.937C292.525 210.034 292.916 208.92 293.338 207.595C293.819 206.21 294.331 204.734 294.873 203.169L303.725 177.788H320.164L299.751 225.75L291.441 246.525H277.079ZM327.039 225.75V177.788H340.769L341.401 193.414L338.691 190.433C339.414 187.844 340.588 185.525 342.214 183.478C343.9 181.431 345.857 179.805 348.085 178.601C350.313 177.396 352.692 176.794 355.221 176.794C356.305 176.794 357.298 176.884 358.201 177.065C359.165 177.246 360.038 177.456 360.821 177.697L356.846 193.685C356.184 193.263 355.281 192.932 354.137 192.691C353.053 192.39 351.909 192.24 350.704 192.24C349.38 192.24 348.145 192.48 347.001 192.962C345.857 193.384 344.894 194.016 344.111 194.859C343.328 195.702 342.696 196.696 342.214 197.84C341.792 198.984 341.582 200.278 341.582 201.724V225.75H327.039Z" fill="#162A45"/>
<path d="M108.413 300.316L98.3885 268.85H103.558L109.626 288.539C109.806 289.018 109.971 289.588 110.121 290.247C110.271 290.876 110.406 291.521 110.526 292.18C110.645 292.839 110.75 293.454 110.84 294.023C110.96 294.593 111.065 295.057 111.155 295.417L109.851 295.372C110.301 293.783 110.645 292.555 110.885 291.686C111.155 290.817 111.365 290.157 111.514 289.708C111.664 289.228 111.799 288.824 111.919 288.494L117.583 274.289H121.943L127.427 288.494C127.727 289.213 127.982 289.932 128.192 290.652C128.431 291.341 128.641 292.045 128.821 292.764C129.001 293.454 129.196 294.188 129.405 294.967L128.237 295.282C128.386 294.473 128.491 293.843 128.551 293.394C128.641 292.914 128.716 292.525 128.776 292.225C128.836 291.925 128.896 291.641 128.956 291.371C129.016 291.071 129.106 290.697 129.226 290.247C129.375 289.798 129.57 289.183 129.81 288.404L135.789 268.85H141.003L130.979 300.316H127.607L119.291 280.627L119.696 280.807L111.694 300.316H108.413ZM154.79 300.766C152.482 300.766 150.415 300.241 148.586 299.193C146.788 298.114 145.365 296.66 144.316 294.832C143.267 292.974 142.743 290.862 142.743 288.494C142.743 286.127 143.267 284.029 144.316 282.201C145.365 280.343 146.788 278.889 148.586 277.84C150.415 276.762 152.482 276.222 154.79 276.222C157.067 276.222 159.105 276.762 160.903 277.84C162.731 278.889 164.17 280.343 165.219 282.201C166.268 284.029 166.792 286.127 166.792 288.494C166.792 290.862 166.268 292.974 165.219 294.832C164.17 296.66 162.731 298.114 160.903 299.193C159.105 300.241 157.067 300.766 154.79 300.766ZM154.79 296.54C156.198 296.54 157.457 296.196 158.566 295.507C159.675 294.787 160.544 293.828 161.173 292.63C161.802 291.401 162.102 290.022 162.072 288.494C162.102 286.936 161.802 285.557 161.173 284.358C160.544 283.13 159.675 282.171 158.566 281.482C157.457 280.792 156.198 280.448 154.79 280.448C153.381 280.448 152.108 280.807 150.969 281.526C149.86 282.216 148.991 283.175 148.362 284.403C147.732 285.602 147.433 286.966 147.463 288.494C147.433 290.022 147.732 291.401 148.362 292.63C148.991 293.828 149.86 294.787 150.969 295.507C152.108 296.196 153.381 296.54 154.79 296.54ZM171.837 300.316V276.717H176.512V284.134L176.063 282.336C176.392 281.197 176.947 280.163 177.726 279.234C178.535 278.305 179.449 277.571 180.468 277.031C181.517 276.492 182.596 276.222 183.705 276.222C184.214 276.222 184.693 276.267 185.143 276.357C185.622 276.447 185.997 276.552 186.267 276.672L185.053 281.706C184.693 281.556 184.289 281.437 183.839 281.347C183.42 281.227 183 281.167 182.581 281.167C181.772 281.167 180.992 281.332 180.243 281.661C179.524 281.961 178.88 282.396 178.31 282.965C177.771 283.504 177.336 284.149 177.007 284.898C176.677 285.617 176.512 286.411 176.512 287.28V300.316H171.837ZM194.193 292.944L193.968 287.91L205.251 276.717H211.499L194.193 292.944ZM189.967 300.316V267.052H194.597V300.316H189.967ZM205.88 300.316L196.98 289.932L200.261 286.921L211.814 300.316H205.88ZM215.426 300.316V276.717H220.101V281.751L219.247 282.291C219.487 281.511 219.861 280.762 220.371 280.043C220.91 279.324 221.555 278.695 222.304 278.155C223.083 277.586 223.907 277.136 224.776 276.807C225.675 276.477 226.589 276.312 227.518 276.312C228.867 276.312 230.051 276.537 231.069 276.986C232.088 277.436 232.928 278.11 233.587 279.009C234.246 279.908 234.726 281.032 235.025 282.381L234.306 282.201L234.621 281.437C234.95 280.747 235.4 280.103 235.969 279.504C236.569 278.874 237.243 278.32 237.992 277.84C238.741 277.361 239.535 276.986 240.375 276.717C241.214 276.447 242.038 276.312 242.847 276.312C244.615 276.312 246.068 276.672 247.207 277.391C248.376 278.11 249.245 279.204 249.814 280.672C250.414 282.141 250.714 283.969 250.714 286.157V300.316H246.039V286.426C246.039 285.078 245.859 283.984 245.499 283.145C245.169 282.276 244.66 281.631 243.971 281.212C243.281 280.792 242.397 280.582 241.319 280.582C240.479 280.582 239.685 280.732 238.936 281.032C238.217 281.302 237.588 281.691 237.048 282.201C236.509 282.71 236.089 283.31 235.789 283.999C235.49 284.658 235.34 285.392 235.34 286.201V300.316H230.665V286.336C230.665 285.108 230.485 284.074 230.126 283.235C229.766 282.366 229.241 281.706 228.552 281.257C227.863 280.807 227.024 280.582 226.035 280.582C225.196 280.582 224.417 280.732 223.697 281.032C222.978 281.302 222.349 281.691 221.809 282.201C221.27 282.68 220.85 283.265 220.551 283.954C220.251 284.613 220.101 285.332 220.101 286.112V300.316H215.426ZM265.993 300.766C264.045 300.766 262.262 300.227 260.643 299.148C259.055 298.069 257.781 296.6 256.822 294.742C255.863 292.884 255.384 290.787 255.384 288.449C255.384 286.082 255.863 283.984 256.822 282.156C257.811 280.298 259.13 278.844 260.778 277.795C262.456 276.747 264.329 276.222 266.397 276.222C267.626 276.222 268.75 276.402 269.769 276.762C270.788 277.121 271.672 277.631 272.421 278.29C273.2 278.919 273.829 279.653 274.309 280.493C274.818 281.332 275.133 282.231 275.253 283.19L274.219 282.83V276.717H278.894V300.316H274.219V294.697L275.298 294.383C275.118 295.192 274.743 295.986 274.174 296.765C273.634 297.514 272.93 298.189 272.061 298.788C271.222 299.387 270.278 299.867 269.229 300.227C268.21 300.586 267.131 300.766 265.993 300.766ZM267.206 296.495C268.615 296.495 269.858 296.151 270.937 295.462C272.016 294.772 272.855 293.828 273.455 292.63C274.084 291.401 274.399 290.007 274.399 288.449C274.399 286.921 274.084 285.557 273.455 284.358C272.855 283.16 272.016 282.216 270.937 281.526C269.858 280.837 268.615 280.493 267.206 280.493C265.828 280.493 264.599 280.837 263.52 281.526C262.471 282.216 261.632 283.16 261.003 284.358C260.404 285.557 260.104 286.921 260.104 288.449C260.104 290.007 260.404 291.401 261.003 292.63C261.632 293.828 262.471 294.772 263.52 295.462C264.599 296.151 265.828 296.495 267.206 296.495ZM285.358 300.316V276.717H289.989V281.571L289.179 282.111C289.479 281.062 290.063 280.103 290.933 279.234C291.802 278.335 292.836 277.616 294.034 277.076C295.233 276.507 296.462 276.222 297.72 276.222C299.518 276.222 301.017 276.582 302.215 277.301C303.414 277.99 304.313 279.054 304.913 280.493C305.512 281.931 305.812 283.744 305.812 285.932V300.316H301.182V286.246C301.182 284.898 301.002 283.789 300.642 282.92C300.283 282.021 299.728 281.377 298.979 280.987C298.23 280.568 297.301 280.388 296.192 280.448C295.293 280.448 294.469 280.597 293.72 280.897C292.97 281.167 292.311 281.556 291.742 282.066C291.202 282.575 290.768 283.175 290.438 283.864C290.138 284.523 289.989 285.243 289.989 286.022V300.316H287.696C287.306 300.316 286.917 300.316 286.527 300.316C286.138 300.316 285.748 300.316 285.358 300.316ZM319.959 300.766C317.981 300.766 316.198 300.421 314.61 299.732C313.022 299.043 311.703 298.024 310.654 296.675L313.801 293.978C314.7 295.027 315.674 295.791 316.723 296.271C317.802 296.72 319.015 296.945 320.364 296.945C320.903 296.945 321.398 296.885 321.847 296.765C322.327 296.615 322.731 296.406 323.061 296.136C323.421 295.866 323.69 295.551 323.87 295.192C324.05 294.802 324.14 294.383 324.14 293.933C324.14 293.154 323.855 292.525 323.286 292.045C322.986 291.835 322.506 291.611 321.847 291.371C321.218 291.101 320.394 290.832 319.375 290.562C317.637 290.112 316.213 289.603 315.104 289.033C313.996 288.464 313.142 287.82 312.542 287.101C312.093 286.531 311.763 285.917 311.553 285.257C311.343 284.568 311.239 283.819 311.239 283.01C311.239 282.021 311.448 281.122 311.868 280.313C312.317 279.474 312.917 278.754 313.666 278.155C314.445 277.526 315.344 277.046 316.363 276.717C317.412 276.387 318.521 276.222 319.69 276.222C320.798 276.222 321.892 276.372 322.971 276.672C324.08 276.971 325.099 277.406 326.028 277.975C326.957 278.545 327.736 279.219 328.365 279.998L325.713 282.92C325.144 282.351 324.514 281.856 323.825 281.437C323.166 280.987 322.492 280.642 321.802 280.403C321.113 280.163 320.484 280.043 319.914 280.043C319.285 280.043 318.716 280.103 318.206 280.223C317.697 280.343 317.262 280.523 316.902 280.762C316.573 281.002 316.318 281.302 316.138 281.661C315.958 282.021 315.869 282.426 315.869 282.875C315.899 283.265 315.988 283.639 316.138 283.999C316.318 284.328 316.558 284.613 316.858 284.853C317.187 285.093 317.682 285.347 318.341 285.617C319 285.887 319.839 286.142 320.858 286.381C322.357 286.771 323.585 287.205 324.544 287.685C325.533 288.134 326.312 288.659 326.882 289.258C327.481 289.828 327.901 290.487 328.14 291.236C328.38 291.985 328.5 292.824 328.5 293.753C328.5 295.102 328.111 296.316 327.331 297.395C326.582 298.443 325.563 299.268 324.275 299.867C322.986 300.466 321.548 300.766 319.959 300.766ZM333.603 300.316V267.052H338.233V281.571L337.424 282.111C337.723 281.062 338.308 280.103 339.177 279.234C340.046 278.335 341.08 277.616 342.279 277.076C343.477 276.507 344.706 276.222 345.965 276.222C347.763 276.222 349.261 276.582 350.46 277.301C351.659 277.99 352.558 279.054 353.157 280.493C353.756 281.931 354.056 283.744 354.056 285.932V300.316H349.426V286.246C349.426 284.898 349.246 283.789 348.887 282.92C348.527 282.021 347.973 281.377 347.223 280.987C346.474 280.568 345.545 280.388 344.436 280.448C343.537 280.448 342.713 280.597 341.964 280.897C341.215 281.167 340.555 281.556 339.986 282.066C339.447 282.575 339.012 283.175 338.682 283.864C338.383 284.523 338.233 285.243 338.233 286.022V300.316H335.94C335.551 300.316 335.161 300.316 334.772 300.316C334.382 300.316 333.992 300.316 333.603 300.316ZM361.101 300.316V276.717H365.731V300.316H361.101ZM363.349 271.502C362.36 271.502 361.596 271.247 361.056 270.738C360.517 270.229 360.247 269.509 360.247 268.58C360.247 267.711 360.517 267.007 361.056 266.468C361.626 265.928 362.39 265.658 363.349 265.658C364.338 265.658 365.102 265.913 365.641 266.423C366.181 266.932 366.45 267.651 366.45 268.58C366.45 269.449 366.166 270.154 365.596 270.693C365.057 271.232 364.308 271.502 363.349 271.502ZM372.848 310.206V276.717H377.523V282.111L376.804 281.706C376.984 280.807 377.493 279.953 378.332 279.144C379.171 278.305 380.19 277.631 381.389 277.121C382.618 276.582 383.876 276.312 385.165 276.312C387.293 276.312 389.181 276.836 390.829 277.885C392.477 278.934 393.781 280.373 394.74 282.201C395.699 284.029 396.178 286.127 396.178 288.494C396.178 290.832 395.699 292.929 394.74 294.787C393.811 296.615 392.522 298.069 390.874 299.148C389.226 300.197 387.368 300.721 385.3 300.721C383.921 300.721 382.588 300.451 381.299 299.912C380.01 299.342 378.917 298.623 378.018 297.754C377.118 296.885 376.564 295.986 376.354 295.057L377.523 294.428V310.206H372.848ZM384.536 296.451C385.914 296.451 387.143 296.106 388.222 295.417C389.3 294.727 390.155 293.783 390.784 292.585C391.413 291.386 391.728 290.022 391.728 288.494C391.728 286.966 391.413 285.617 390.784 284.448C390.185 283.25 389.345 282.306 388.267 281.616C387.188 280.927 385.944 280.582 384.536 280.582C383.127 280.582 381.883 280.927 380.805 281.616C379.726 282.276 378.872 283.205 378.242 284.403C377.613 285.602 377.298 286.966 377.298 288.494C377.298 290.022 377.613 291.386 378.242 292.585C378.872 293.783 379.726 294.727 380.805 295.417C381.883 296.106 383.127 296.451 384.536 296.451ZM162.101 349.316L152.076 317.85H157.246L163.314 337.539C163.494 338.018 163.659 338.588 163.809 339.247C163.959 339.876 164.093 340.521 164.213 341.18C164.333 341.839 164.438 342.454 164.528 343.023C164.648 343.593 164.753 344.057 164.843 344.417L163.539 344.372C163.989 342.783 164.333 341.555 164.573 340.686C164.843 339.817 165.052 339.157 165.202 338.708C165.352 338.228 165.487 337.824 165.607 337.494L171.271 323.289H175.631L181.115 337.494C181.415 338.213 181.67 338.932 181.879 339.652C182.119 340.341 182.329 341.045 182.509 341.764C182.689 342.454 182.883 343.188 183.093 343.967L181.924 344.282C182.074 343.473 182.179 342.843 182.239 342.394C182.329 341.914 182.404 341.525 182.464 341.225C182.524 340.925 182.584 340.641 182.644 340.371C182.704 340.071 182.793 339.697 182.913 339.247C183.063 338.798 183.258 338.183 183.498 337.404L189.476 317.85H194.691L184.666 349.316H181.295L172.979 329.627L173.383 329.807L165.382 349.316H162.101ZM206.949 349.766C205.001 349.766 203.218 349.227 201.6 348.148C200.012 347.069 198.738 345.6 197.779 343.742C196.82 341.884 196.341 339.787 196.341 337.449C196.341 335.082 196.82 332.984 197.779 331.156C198.768 329.298 200.087 327.844 201.735 326.795C203.413 325.747 205.286 325.222 207.354 325.222C208.583 325.222 209.706 325.402 210.725 325.762C211.744 326.121 212.628 326.631 213.377 327.29C214.157 327.919 214.786 328.653 215.265 329.493C215.775 330.332 216.09 331.231 216.209 332.19L215.175 331.83V325.717H219.85V349.316H215.175V343.697L216.254 343.383C216.075 344.192 215.7 344.986 215.131 345.765C214.591 346.514 213.887 347.189 213.018 347.788C212.179 348.387 211.235 348.867 210.186 349.227C209.167 349.586 208.088 349.766 206.949 349.766ZM208.163 345.495C209.571 345.495 210.815 345.151 211.894 344.462C212.973 343.772 213.812 342.828 214.411 341.63C215.041 340.401 215.355 339.007 215.355 337.449C215.355 335.921 215.041 334.557 214.411 333.358C213.812 332.16 212.973 331.216 211.894 330.526C210.815 329.837 209.571 329.493 208.163 329.493C206.784 329.493 205.556 329.837 204.477 330.526C203.428 331.216 202.589 332.16 201.96 333.358C201.36 334.557 201.061 335.921 201.061 337.449C201.061 339.007 201.36 340.401 201.96 341.63C202.589 342.828 203.428 343.772 204.477 344.462C205.556 345.151 206.784 345.495 208.163 345.495ZM226.315 349.316V325.717H230.99V333.134L230.541 331.336C230.87 330.197 231.425 329.163 232.204 328.234C233.013 327.305 233.927 326.571 234.946 326.031C235.995 325.492 237.074 325.222 238.182 325.222C238.692 325.222 239.171 325.267 239.621 325.357C240.1 325.447 240.475 325.552 240.745 325.672L239.531 330.706C239.171 330.556 238.767 330.437 238.317 330.347C237.898 330.227 237.478 330.167 237.059 330.167C236.25 330.167 235.47 330.332 234.721 330.661C234.002 330.961 233.358 331.396 232.788 331.965C232.249 332.504 231.814 333.149 231.485 333.898C231.155 334.617 230.99 335.411 230.99 336.28V349.316H226.315ZM244.445 349.316V325.717H249.12V333.134L248.671 331.336C249 330.197 249.555 329.163 250.334 328.234C251.143 327.305 252.057 326.571 253.076 326.031C254.125 325.492 255.204 325.222 256.313 325.222C256.822 325.222 257.301 325.267 257.751 325.357C258.23 325.447 258.605 325.552 258.875 325.672L257.661 330.706C257.301 330.556 256.897 330.437 256.447 330.347C256.028 330.227 255.608 330.167 255.189 330.167C254.38 330.167 253.6 330.332 252.851 330.661C252.132 330.961 251.488 331.396 250.918 331.965C250.379 332.504 249.944 333.149 249.615 333.898C249.285 334.617 249.12 335.411 249.12 336.28V349.316H244.445ZM270.646 349.766C268.698 349.766 266.915 349.227 265.297 348.148C263.708 347.069 262.435 345.6 261.476 343.742C260.517 341.884 260.037 339.787 260.037 337.449C260.037 335.082 260.517 332.984 261.476 331.156C262.465 329.298 263.783 327.844 265.431 326.795C267.11 325.747 268.983 325.222 271.05 325.222C272.279 325.222 273.403 325.402 274.422 325.762C275.441 326.121 276.325 326.631 277.074 327.29C277.853 327.919 278.483 328.653 278.962 329.493C279.471 330.332 279.786 331.231 279.906 332.19L278.872 331.83V325.717H283.547V349.316H278.872V343.697L279.951 343.383C279.771 344.192 279.397 344.986 278.827 345.765C278.288 346.514 277.583 347.189 276.714 347.788C275.875 348.387 274.931 348.867 273.882 349.227C272.864 349.586 271.785 349.766 270.646 349.766ZM271.86 345.495C273.268 345.495 274.512 345.151 275.591 344.462C276.669 343.772 277.509 342.828 278.108 341.63C278.737 340.401 279.052 339.007 279.052 337.449C279.052 335.921 278.737 334.557 278.108 333.358C277.509 332.16 276.669 331.216 275.591 330.526C274.512 329.837 273.268 329.493 271.86 329.493C270.481 329.493 269.252 329.837 268.174 330.526C267.125 331.216 266.286 332.16 265.656 333.358C265.057 334.557 264.757 335.921 264.757 337.449C264.757 339.007 265.057 340.401 265.656 341.63C266.286 342.828 267.125 343.772 268.174 344.462C269.252 345.151 270.481 345.495 271.86 345.495ZM290.012 349.316V325.717H294.642V330.571L293.833 331.111C294.132 330.062 294.717 329.103 295.586 328.234C296.455 327.335 297.489 326.616 298.687 326.076C299.886 325.507 301.115 325.222 302.374 325.222C304.172 325.222 305.67 325.582 306.869 326.301C308.067 326.99 308.967 328.054 309.566 329.493C310.165 330.931 310.465 332.744 310.465 334.932V349.316H305.835V335.246C305.835 333.898 305.655 332.789 305.295 331.92C304.936 331.021 304.381 330.377 303.632 329.987C302.883 329.568 301.954 329.388 300.845 329.448C299.946 329.448 299.122 329.597 298.373 329.897C297.624 330.167 296.964 330.556 296.395 331.066C295.856 331.575 295.421 332.175 295.091 332.864C294.792 333.523 294.642 334.243 294.642 335.022V349.316H292.349C291.96 349.316 291.57 349.316 291.181 349.316C290.791 349.316 290.401 349.316 290.012 349.316ZM319.668 349.316V319.693H324.298V349.316H319.668ZM314.768 330.212V325.717H329.782V330.212H314.768ZM337.954 359.655L342.719 348.642L342.764 352.328L330.986 325.717H336.38L343.753 343.068C343.902 343.368 344.082 343.832 344.292 344.462C344.502 345.061 344.682 345.66 344.831 346.26L343.663 346.529C343.902 345.9 344.127 345.271 344.337 344.641C344.577 344.012 344.801 343.383 345.011 342.753L351.17 325.717H356.654L346.944 349.316L342.943 359.655H337.954Z" fill="#162A45"/>
</svg>
