<svg width="528" height="521" viewBox="0 0 528 521" fill="none" xmlns="http://www.w3.org/2000/svg">
<path d="M66 0.200195H456.524C492.411 0.200293 521.679 28.9557 522.313 64.8369L527.284 345.94C527.612 364.471 520.109 382.281 506.62 394.991L392.118 502.889C379.909 514.393 363.767 520.8 346.992 520.8H66C29.6597 520.8 0.200212 491.34 0.200195 455V66C0.200199 29.6597 29.6597 0.200199 66 0.200195Z" fill="#F9F9F9"/>
<path d="M66 0.200195H456.524C492.411 0.200293 521.679 28.9557 522.313 64.8369L527.284 345.94C527.612 364.471 520.109 382.281 506.62 394.991L392.118 502.889C379.909 514.393 363.767 520.8 346.992 520.8H66C29.6597 520.8 0.200212 491.34 0.200195 455V66C0.200199 29.6597 29.6597 0.200199 66 0.200195Z" fill="white" fill-opacity="0.2"/>
<path d="M66 0.200195H456.524C492.411 0.200293 521.679 28.9557 522.313 64.8369L527.284 345.94C527.612 364.471 520.109 382.281 506.62 394.991L392.118 502.889C379.909 514.393 363.767 520.8 346.992 520.8H66C29.6597 520.8 0.200212 491.34 0.200195 455V66C0.200199 29.6597 29.6597 0.200199 66 0.200195Z" stroke="black" stroke-width="0.4"/>
</svg>
