<svg width="61" height="51" viewBox="0 0 61 51" fill="none" xmlns="http://www.w3.org/2000/svg">
<path d="M30.8066 3.59616C32.3172 -0.523869 38.3971 -1.51608 40.8905 2.80407L60.3969 36.6013C60.4246 36.6492 60.4082 36.7107 60.3604 36.7385L60.336 36.7486L60.3102 36.7522H50.6967L52.2224 39.3957C52.2501 39.4437 52.2335 39.5052 52.1856 39.5329C52.1703 39.5418 52.153 39.5463 52.1354 39.5463H38.8703C38.3949 40.3682 38.1225 41.3223 38.1225 42.3401L38.121 42.4735C38.0253 47.0797 32.9792 49.2245 29.6035 47.1348C28.0933 51.2554 22.0135 52.2482 19.5199 47.9278L0.0134986 14.1303C-0.0142051 14.0823 0.00207927 14.0209 0.0500291 13.9931C0.0652676 13.9843 0.0826227 13.9794 0.100221 13.9794H9.71368L8.18801 11.3359C8.16033 11.2878 8.17684 11.2264 8.22484 11.1987C8.23247 11.1943 8.24075 11.1908 8.24919 11.1886L8.27503 11.1853H21.5403C22.0157 10.3634 22.2879 9.40918 22.2879 8.39145C22.288 3.69371 27.3984 1.48697 30.8066 3.59616ZM35.5357 39.5463C32.4496 39.5463 29.9478 42.0482 29.9477 45.1343C29.9477 45.6259 29.8918 46.0904 29.7876 46.5254C32.8228 48.5507 37.5142 46.5894 37.5143 42.3401C37.5143 41.3349 37.7538 40.3858 38.1786 39.5463H35.5357ZM40.3636 3.1079C38.1119 -0.793397 32.5784 0.166902 31.3258 3.96265C31.8551 4.3854 32.3287 4.92768 32.7157 5.59821L50.3457 36.1439H59.4308L40.3636 3.1079ZM9.15443 11.7935L10.4161 13.9794H16.6999C18.5058 13.9794 20.1113 13.1226 21.1329 11.7935H9.15443Z" fill="white"/>
</svg>
