<svg width="54" height="45" viewBox="0 0 54 45" fill="none" xmlns="http://www.w3.org/2000/svg">
<path d="M27.1631 3.17084C28.4951 -0.461912 33.8559 -1.33678 36.0544 2.47244L53.2538 32.2725C53.2782 32.3148 53.2638 32.369 53.2216 32.3935L53.2001 32.4024L53.1773 32.4055H44.7009L46.0461 34.7364C46.0705 34.7788 46.0559 34.8329 46.0136 34.8574C46.0002 34.8652 45.9849 34.8692 45.9694 34.8692H34.2732C33.8539 35.5939 33.6138 36.4352 33.6138 37.3326L33.6125 37.4502C33.5281 41.5116 29.0788 43.4028 26.1023 41.5602C24.7707 45.1935 19.41 46.0688 17.2113 42.2594L0.0119022 12.4591C-0.0125251 12.4168 0.00183335 12.3626 0.0441122 12.3381C0.0575485 12.3304 0.072851 12.3261 0.0883683 12.3261H8.56485L7.21962 9.99518C7.19522 9.95284 7.20978 9.89866 7.25209 9.8742C7.25883 9.87032 7.26612 9.86728 7.27357 9.8653L7.29635 9.86241H18.9928C19.412 9.13774 19.6519 8.29637 19.6519 7.399C19.652 3.25686 24.158 1.31111 27.1631 3.17084ZM31.3329 34.8692C28.6118 34.8692 26.4059 37.0752 26.4058 39.7963C26.4058 40.2298 26.3565 40.6393 26.2647 41.0229C28.9409 42.8087 33.0774 41.0793 33.0775 37.3326C33.0775 36.4463 33.2887 35.6094 33.6633 34.8692H31.3329ZM35.5899 2.74033C33.6045 -0.699563 28.7254 0.147163 27.6209 3.49399C28.0876 3.86674 28.5052 4.34489 28.8464 4.93611L44.3913 31.8692H52.4019L35.5899 2.74033ZM8.07175 10.3987L9.18417 12.3261H14.7248C16.3171 12.3261 17.7328 11.5706 18.6335 10.3987H8.07175Z" fill="#5A95E2"/>
</svg>
