<svg width="68" height="59" viewBox="0 0 68 59" fill="none" xmlns="http://www.w3.org/2000/svg">
<path d="M59.216 45.5137C59.2474 45.5682 59.2287 45.6378 59.1743 45.6693C59.157 45.6793 59.1373 45.6846 59.1173 45.6846H40.2953C36.7955 45.6846 33.9584 48.5217 33.9584 52.0215C33.9584 58.5058 25.3732 60.8049 22.1326 55.1885L0.0152654 16.8554C-0.0161592 16.801 0.00248716 16.7313 0.0569242 16.6999C0.0742563 16.6898 0.0939229 16.6846 0.113943 16.6846H18.9359C22.4357 16.6846 25.2728 13.8474 25.2728 10.3476C25.2728 3.86333 33.8581 1.56421 37.0986 7.18068L59.216 45.5137Z" fill="#2061B7"/>
<path d="M34.0225 6.34766C34.0225 0.630803 41.5922 -1.39607 44.4492 3.55566L66.0156 40.9346H48.2949C44.3811 40.9348 41.208 44.1076 41.208 48.0215C41.208 53.7383 33.6393 55.7652 30.7822 50.8135L9.21582 13.4346H26.9355C30.8496 13.4346 34.0224 10.2617 34.0225 6.34766Z" stroke="#2061B7" stroke-width="1.5"/>
</svg>
