<svg width="2265" height="443" viewBox="0 0 2265 443" fill="none" xmlns="http://www.w3.org/2000/svg">
<path d="M-8.49994 6.99923L2269.5 6.99949L2269.5 333L-8.50001 132.999L-8.49994 6.99923Z" fill="#0F2B47"/>
<path d="M1406.76 440.866C1409.12 432.24 1406.26 418.084 1410.15 410.803C1411.9 407.54 1417.4 407.793 1419.37 405.928C1425.52 400.031 1418.31 399.646 1432.06 396.369C1434.97 395.676 1441.33 399.555 1439.51 392.675C1438.71 389.611 1433.07 391.19 1432.6 390.56C1432.11 389.84 1434.52 385.555 1432.39 382.66C1430.27 379.765 1424.81 380.657 1423.49 373.678C1421.4 362.64 1429.95 369.011 1435.18 365.43C1457 350.402 1418.83 321.821 1452.6 327.956C1444.78 296.281 1463.89 309.271 1468.74 306.035C1480.26 298.33 1447.83 293.756 1453.34 282.672C1456.03 277.27 1466.32 280.084 1471.16 279.924C1481.34 288.704 1491.32 303.91 1506.72 298.034L1514.04 310.325C1504.89 315.207 1505.58 313.543 1496.06 314.493C1491.47 314.941 1484.21 316.954 1480.45 316.161C1478.9 315.839 1474.98 296.163 1466.75 324.511C1478.46 335.808 1487.18 325.846 1495.24 323.176C1516.92 316.016 1523.85 339.608 1499.51 338.051C1496.71 337.876 1492.12 334.28 1490.98 334.759C1489.26 335.476 1470.86 360.114 1459.69 343.448C1456.85 339.226 1462.65 331.45 1455.81 331.217L1450.38 351.186C1461.4 350.699 1472.82 357.28 1483.63 354.928C1488.55 353.867 1508.32 333.02 1513.32 350.219C1518.61 368.442 1502.58 362.276 1495.67 364.996C1492.93 366.057 1492.83 371.643 1484.25 374.176C1472.89 377.532 1462.96 374.577 1451.88 371.865L1460.95 387.366C1454.68 405.704 1461.84 400.312 1473.53 403.199C1478.73 410.749 1472.63 416.21 1471.89 420.624C1449.34 427.732 1450.83 415.977 1456.09 401.588C1446.58 399.024 1433.7 399.072 1434.03 409.416C1434.11 411.562 1440.12 412.42 1442.12 415.099C1444.46 418.249 1443.5 422.875 1447.01 425.608C1449.96 427.907 1465.78 428.428 1454.51 439.674C1445.43 448.722 1426.73 430.966 1421.46 433.46C1419.98 434.171 1425.69 446.895 1406.69 440.86L1406.76 440.866Z" fill="#FCFCFC"/>
<path d="M1553.84 261.329C1546.38 263.615 1537.83 254.931 1535.07 254.73C1532.31 254.529 1528.36 259.489 1524.3 258.58C1517.78 257.118 1522.48 245.371 1518.07 243.228C1512.01 240.285 1485.18 240.838 1481.91 243.021C1480.19 244.177 1481.38 253.987 1480.36 257.348C1484.35 261.679 1515.3 245.721 1515.07 262.048C1493.49 273.349 1510.52 275.215 1510.47 276.499C1510.41 277.871 1505.9 285.386 1505.32 285.624C1494.35 290.042 1491.45 279.339 1489.88 278.84C1485.47 277.429 1476.82 278.433 1474.96 277.349C1474.22 276.928 1469 264.337 1469.1 263.614C1469.3 261.553 1479.19 264.475 1476.73 258.501C1475.21 254.813 1458.68 250.622 1464.96 237.296C1469.27 228.15 1481.67 238.164 1485.16 236.911C1514.3 214.483 1482.99 229.323 1476.68 224.57C1470.37 219.816 1477.1 201.786 1492.71 211.662C1494.97 213.105 1494.36 217.677 1496.63 217.89C1506.02 218.715 1515.71 209.929 1514.79 228.329C1527.75 226.735 1517.97 207.24 1511.3 205.207C1504.63 203.173 1479.97 206.479 1474.71 202.85C1468.17 198.309 1470.15 187.42 1482.22 188.087C1485.03 188.233 1486.26 190.488 1486.64 190.553C1486.43 195.045 1496.47 195.99 1497.1 191.537C1497.42 189.634 1497.26 187.626 1497.65 185.729C1516.89 193.984 1513.48 185.372 1521.8 182.17C1525.2 180.878 1536.14 181.234 1536.84 180.567C1538.85 178.675 1534.22 171.033 1535.25 167.497C1536.29 163.962 1541.79 163.805 1541.96 163.499L1551.61 173.195C1558.52 175.252 1564.73 167.955 1570.77 169.578C1583.61 172.983 1578.66 187.546 1566.16 186.43C1556.11 185.543 1562.45 174.626 1551.34 176.071C1551.83 185.463 1551.04 185.946 1543 189.935C1541.3 190.801 1534.92 188.59 1532.44 193.718C1529.21 200.387 1534.19 206.92 1533.84 212.512C1533.75 213.793 1528.5 217.577 1529.53 220.867C1540.76 223.066 1541.3 222.179 1540.81 213.168C1540.41 206.216 1535.33 199.263 1542.72 192.839C1567.52 192.622 1551.39 199.807 1551.7 209.68C1551.92 216.703 1563.11 223.762 1552.82 234.806C1545.82 238.074 1532.68 218.41 1528.23 233.987C1537.32 236.044 1533.63 243.871 1534.43 244.737C1536.93 247.374 1555.16 239.421 1560.59 247.197C1565.61 254.379 1555.87 256.949 1553.88 261.274L1553.84 261.329ZM1535.48 250.812L1535.75 247.908C1533.39 248.653 1533.3 249.641 1535.48 250.812Z" fill="#FCFCFC"/>
<path d="M1489.88 155.702C1487.52 153.81 1478.97 154.969 1479.89 147.438C1480.52 142.195 1488 140.905 1489.55 138.239C1492.28 133.486 1483.64 125.085 1498.22 124.201C1514.29 123.221 1513.1 128.822 1519.96 135.122C1528.23 142.667 1532.64 136.168 1537.4 136.762C1549.82 138.282 1557.44 159.096 1538.98 157.419C1538.63 157.064 1535.16 157.588 1533.2 155.968C1530.85 154.018 1530.94 149.016 1527.34 147.975C1524.15 147.06 1518.56 150.049 1514.07 148.778C1508.62 147.211 1505.11 136.626 1495 138.634L1489.88 155.702Z" fill="#FCFCFC"/>
<path d="M1579.22 328.174C1578.31 328.937 1578.97 333.834 1575.28 335.245C1569.63 337.408 1560.34 333.957 1557.86 335.306C1556.04 336.278 1554.98 347.546 1552.2 348.719C1550.62 349.391 1523.98 348.702 1517.19 351.639C1516.31 343.469 1523.89 329.416 1534.77 330.117C1541.03 330.501 1549.33 338.488 1553.92 329.72C1558.51 320.952 1548.22 314.359 1569.57 318.506C1569.76 319.139 1578.27 325.535 1579.22 328.203L1579.22 328.174Z" fill="#FCFCFC"/>
<path d="M1566.89 225.057C1566.13 224.165 1555.53 223.519 1561.62 218.233C1562.2 217.759 1568.39 219.602 1568.64 217.311C1569.22 211.915 1557.27 206.162 1564.94 197.89C1571.64 190.668 1584.94 195.141 1583.86 204.063C1583.39 207.945 1571.06 218.153 1577.81 226.493C1579.48 228.555 1606.37 238.174 1583.51 245.136C1560.66 252.098 1570.12 228.905 1566.89 225.086L1566.89 225.057Z" fill="#FCFCFC"/>
<path d="M1537.74 95.7459C1537.72 90.7339 1541.76 85.9572 1542.59 81.5533C1547.37 82.7353 1554.1 81.5514 1555.82 87.5438C1558.63 97.3008 1548.24 98.931 1547.93 99.6341C1544.19 99.3993 1540.56 96.4214 1537.74 95.7459Z" fill="#FCFCFC"/>
<path d="M1542.59 81.5549C1537.91 80.4118 1530.38 81.9883 1526.88 77.2357C1522.14 70.7546 1542.03 67.3218 1512.84 61.178C1512.68 47.1005 1508.5 41.1398 1508.41 36.0051C1508.36 32.8939 1512.58 28.8082 1512.63 26.0005L1516.12 26.3285C1517.25 26.6691 1518.98 26.2167 1519.6 26.6566C1533.82 36.7246 1523.85 42.4961 1524.29 48.6318C1524.5 51.3462 1531.28 51.8082 1532.77 54.2632C1535.12 58.1459 1532.49 64.022 1534.15 65.7608C1537.64 69.4581 1546.71 59.7933 1542.59 81.5549Z" fill="#FCFCFC"/>
<path d="M1528.31 121.228L1513.98 105.231C1500.25 131.1 1475.15 105.74 1509.84 93.1228C1520.91 89.0959 1520.87 93.6043 1527.28 94.7629C1527.49 96.5995 1526.27 99.0633 1526.73 100.571L1529.94 103.803C1531.53 105.652 1536.81 107.115 1538.06 110.28C1539.43 113.719 1535.71 116.621 1535.55 118.98C1533.89 119.878 1528.76 120.509 1528.31 121.228Z" fill="#FCFCFC"/>
<path d="M1570.94 303.957C1570.43 302.736 1563.58 301.829 1561.74 299.254C1560.41 297.37 1562.18 293.142 1560.89 291.907C1558.43 289.567 1552.75 291.201 1551.14 290.405C1550.5 290.081 1545.67 280.456 1545.63 279.075C1545.39 274.131 1552.63 273.406 1552.78 272.98C1559.05 273.658 1567.38 272.596 1571.65 277.743C1572.31 278.567 1581.71 294.598 1581.97 295.56C1583.1 299.68 1578.34 301.254 1578.26 301.774L1571.01 304.022L1570.94 303.957Z" fill="#FCFCFC"/>
<path d="M1547.11 108.349C1561.65 100.342 1559.74 121.432 1570.16 125.166C1558.8 155.74 1542.6 125.973 1547.11 108.349Z" fill="#FCFCFC"/>
<path d="M1527.13 21.5045C1533.54 13.9624 1514.47 -12.3235 1528.69 -13.4767C1538.23 -14.2787 1544.97 13.6602 1544.84 20.2404C1539.53 23.579 1531.56 20.7786 1527.13 21.5045Z" fill="#FCFCFC"/>
<path d="M1492.81 161.843C1495.24 163.331 1505.55 162.924 1507.99 169.13C1518.6 152.168 1536.75 177.284 1521.02 179.145C1513.05 180.095 1510.76 173.433 1507.65 172.028C1505.76 171.176 1507.52 176.849 1498.42 177.019C1493.98 177.1 1488.99 175.869 1484.47 175.707C1484.57 169.74 1484.63 163.125 1492.81 161.843Z" fill="#FCFCFC"/>
<path d="M1521.29 308.078C1523.13 304.647 1519.75 295.276 1526.12 292.184C1532.5 289.092 1537.58 295.019 1540.1 295.197L1539.82 298.101L1543.04 301.334C1545.26 306.494 1547.73 309.422 1545.16 316.182C1536.35 315.178 1523.99 316.77 1521.29 308.078Z" fill="#FCFCFC"/>
<path d="M2107.64 333.452C2092.12 335.656 2087.34 321.816 2099.76 315.865C2120.94 305.728 2124.72 331.016 2107.64 333.452Z" fill="#FCFCFC"/>
<path d="M2145.31 269.609C2129.8 271.812 2125.01 257.973 2137.43 252.021C2158.62 241.884 2162.4 267.172 2145.31 269.609Z" fill="#FCFCFC"/>
<path d="M1989.85 299.608C1996.45 309.048 1973.69 323.198 1965.85 311.942C1956.24 298.147 1984.51 291.987 1989.85 299.608Z" fill="#FCFCFC"/>
<path d="M2097.13 169.067C2103.74 178.507 2080.98 192.657 2073.13 181.401C2063.52 167.606 2091.79 161.446 2097.13 169.067Z" fill="#FCFCFC"/>
<path d="M2168.24 351.339C2164.77 339.88 2179.83 323.483 2191.02 337.251C2199.48 347.627 2180.36 356.376 2168.24 351.339Z" fill="#FCFCFC"/>
<path d="M2187.91 303.059C2171.99 304.784 2168.11 282.387 2187.15 282.684C2204.97 282.953 2199.86 301.751 2187.91 303.059Z" fill="#FCFCFC"/>
<path d="M1880.34 159.962C1873.73 150.522 1896.49 136.373 1904.34 147.628C1913.95 161.423 1885.68 167.583 1880.34 159.962Z" fill="#FCFCFC"/>
<path d="M2032.01 194.676C2025.32 189.886 2029.11 176.502 2042.75 176.261C2067.71 175.824 2046.16 204.737 2032.01 194.676Z" fill="#FCFCFC"/>
<path d="M1927.38 266.697C1906.62 269.696 1909.28 246.654 1927.04 247.094C1938.77 247.376 1942.43 264.509 1927.38 266.697Z" fill="#FCFCFC"/>
<path d="M2105.26 283.424C2084.5 286.423 2087.16 263.381 2104.93 263.822C2116.65 264.104 2120.32 281.237 2105.26 283.424Z" fill="#FCFCFC"/>
<path d="M1884.95 268.619C1871.12 270.453 1860.13 256.382 1875 252.009C1897.54 245.398 1901.91 266.375 1884.95 268.619Z" fill="#FCFCFC"/>
<path d="M1800.7 266.411C1772.83 270.529 1781.67 243.117 1802.25 249.945C1813.47 253.667 1812.9 264.6 1800.7 266.411Z" fill="#FCFCFC"/>
<path d="M2022.05 307.822C2001.28 310.821 2003.94 287.779 2021.71 288.219C2033.43 288.501 2037.1 305.634 2022.05 307.822Z" fill="#FCFCFC"/>
<path d="M1940.11 320.715C1922.33 323.819 1915.8 308.292 1926.17 303.496C1943.72 295.419 1955.71 317.964 1940.11 320.715Z" fill="#FCFCFC"/>
<path d="M1879.27 321.001C1872.32 311.089 1896.78 299.063 1903.2 308.719C1912.6 322.875 1884.52 328.467 1879.27 321.001Z" fill="#FCFCFC"/>
<path d="M1794.97 321.715C1788.03 317.225 1793.52 306.432 1805.07 305.527C1833.01 303.32 1813.18 333.477 1794.97 321.715Z" fill="#FCFCFC"/>
<path d="M2067.6 347.263C2046.84 350.262 2049.5 327.22 2067.26 327.66C2078.99 327.943 2082.65 345.075 2067.6 347.263Z" fill="#FCFCFC"/>
<path d="M2069.62 139.408C2059.27 139.137 2054.03 124.436 2066.75 120.534C2088.64 113.832 2089.28 139.88 2069.62 139.408Z" fill="#FCFCFC"/>
<path d="M1983.67 154.941C1962.66 157.242 1968.44 128.283 1989.31 135.431C1999.06 138.779 1993.81 153.813 1983.67 154.941Z" fill="#FCFCFC"/>
<path d="M2196.89 128.968C2203.34 121.371 2224.69 124.814 2219.64 137.319C2214.18 150.868 2185.81 142.047 2196.89 128.968Z" fill="#FCFCFC"/>
<path d="M2070.58 294.519C2056.09 304.173 2041.67 287.611 2056.83 279.076C2069.35 272.049 2081.58 287.175 2070.58 294.519Z" fill="#FCFCFC"/>
<path d="M2011.26 187.155C2018.27 194.172 1995.61 212.168 1987 199.669C1976.44 184.32 2007.37 183.244 2011.26 187.155Z" fill="#FCFCFC"/>
<path d="M1668.74 315.791C1662.19 306.151 1685.05 290.956 1692.34 306.642C1697.75 318.285 1674.47 324.181 1668.74 315.791Z" fill="#FCFCFC"/>
<path d="M2179.66 205.572C2159.55 209.13 2160.73 185.305 2179.16 185.836C2192.35 186.227 2191.32 203.505 2179.66 205.572Z" fill="#FCFCFC"/>
<path d="M2231.02 316.462C2232.64 324.319 2227.34 332.728 2217.33 332.577C2193.54 332.244 2213.06 304.226 2231.02 316.462Z" fill="#FCFCFC"/>
<path d="M1941.1 159.758C1914.05 164.48 1923.8 127.017 1951.57 147.939C1950.26 152.094 1946.32 158.843 1941.1 159.758Z" fill="#FCFCFC"/>
<path d="M2082.34 44.1853C2056.58 48.6483 2065.39 19.0352 2084.55 24.0891C2091.07 25.8159 2091.64 42.5696 2082.34 44.1853Z" fill="#FCFCFC"/>
<path d="M1725.7 318.131C1707.09 321.421 1701.04 305.762 1715.45 301.405C1734.61 295.589 1737.76 316.013 1725.7 318.131Z" fill="#FCFCFC"/>
<path d="M2261.76 266.061C2254.79 266.841 2247.78 260.967 2247.93 255.239C2271.22 230.563 2281.89 263.823 2261.76 266.061Z" fill="#FCFCFC"/>
<path d="M1942.49 207.029C1935.61 200.083 1957.9 181.964 1966.74 194.573C1976.11 207.936 1947.89 212.488 1942.49 207.029Z" fill="#FCFCFC"/>
<path d="M1758.8 265.577C1740.19 268.866 1734.13 253.208 1748.54 248.85C1767.71 243.035 1770.85 263.458 1758.8 265.577Z" fill="#FCFCFC"/>
<path d="M1970.05 261.92C1954.04 264.164 1951.12 249.182 1959.8 245.164C1977.28 237.052 1990.13 259.12 1970.05 261.92Z" fill="#FCFCFC"/>
<path d="M1673.8 269.212C1657.79 271.456 1654.87 256.474 1663.55 252.456C1681.03 244.344 1693.87 266.412 1673.8 269.212Z" fill="#FCFCFC"/>
<path d="M2102.05 124.909C2096.75 116.207 2105.7 105.974 2118.05 109.743C2140.73 116.622 2109.36 136.964 2102.05 124.909Z" fill="#FCFCFC"/>
<path d="M2156.28 115.509C2149.31 116.289 2142.29 110.414 2142.45 104.686C2165.74 80.0102 2176.41 113.27 2156.28 115.509Z" fill="#FCFCFC"/>
<path d="M1811.79 212.347C1812.4 207.746 1811.4 198.95 1816.56 196.476C1834.88 187.622 1850.51 223.078 1811.79 212.347Z" fill="#FCFCFC"/>
<path d="M2146.68 203.054C2153.4 215.434 2142.98 219.962 2129.48 221.71C2117.01 210.254 2131.29 198.383 2146.68 203.054Z" fill="#FCFCFC"/>
<path d="M2262.62 219.116C2241.76 222.105 2246.41 203.323 2262.2 199.3C2276.15 202.458 2276.18 217.197 2262.62 219.116Z" fill="#FCFCFC"/>
<path d="M1812.2 165.067C1807 167.215 1786.23 163.592 1788.98 156.057C1805.55 135.086 1825.67 159.508 1812.2 165.067Z" fill="#FCFCFC"/>
<path d="M1868.97 214.321C1852.96 216.566 1850.04 201.583 1858.73 197.566C1876.2 189.453 1889.05 211.521 1868.97 214.321Z" fill="#FCFCFC"/>
<path d="M2086.11 68.5029C2088.35 66.0181 2111.69 62.5583 2108.89 76.9734C2105.67 93.6341 2075.49 80.3373 2086.11 68.5029Z" fill="#FCFCFC"/>
<path d="M2206.93 174.094C2218.53 166.395 2233.85 175.98 2224.25 186.738C2213.9 198.364 2193.04 183.306 2206.93 174.094Z" fill="#FCFCFC"/>
<path d="M2099.65 233.174C2081.04 236.464 2074.99 220.805 2089.4 216.448C2108.56 210.632 2111.71 231.056 2099.65 233.174Z" fill="#FCFCFC"/>
<path d="M2013 254.238C1996.99 256.483 1994.07 241.5 2002.76 237.483C2020.23 229.37 2033.08 251.438 2013 254.238Z" fill="#FCFCFC"/>
<path d="M2041.18 242.707C2041.13 232.095 2040.48 225.53 2055.37 226.55C2079.04 228.161 2061.21 250.566 2041.18 242.707Z" fill="#FCFCFC"/>
<path d="M1842.78 267.554C1828.92 269.415 1818.04 255.295 1832.88 250.89C1850.4 245.711 1860.89 265.126 1842.78 267.554Z" fill="#FCFCFC"/>
<path d="M2166.31 160.457C2146.08 154.718 2158.5 135.289 2175.25 141.288C2188.19 145.903 2173.7 158.926 2166.31 160.457Z" fill="#FCFCFC"/>
<path d="M2030.09 147.441C2014.08 149.686 2011.16 134.704 2019.84 130.686C2037.32 122.573 2050.16 144.641 2030.09 147.441Z" fill="#FCFCFC"/>
<path d="M2262.21 64.0905C2262.06 59.3591 2264.22 52.4431 2269.37 50.1145C2290.91 40.333 2295.35 79.5414 2262.21 64.0905Z" fill="#FCFCFC"/>
<path d="M2181.99 255.684C2161.76 249.944 2174.18 230.515 2190.93 236.515C2203.87 241.13 2189.38 254.152 2181.99 255.684Z" fill="#FCFCFC"/>
<path d="M2222.68 45.5741C2215.71 46.3542 2208.7 40.4796 2208.85 34.7515C2232.14 10.0756 2242.81 43.3358 2222.68 45.5741Z" fill="#FCFCFC"/>
<path d="M1878.46 115.687C1859.85 118.976 1853.79 103.318 1868.21 98.9606C1887.37 93.145 1890.52 113.569 1878.46 115.687Z" fill="#FCFCFC"/>
<path d="M1699.84 219.012C1681.23 222.301 1675.18 206.643 1689.59 202.286C1708.75 196.47 1711.9 216.894 1699.84 219.012Z" fill="#FCFCFC"/>
<path d="M2193.36 43.3758C2202.19 55.7787 2170.19 67.1257 2168.57 50.6545C2167.83 43.2597 2188.02 35.8417 2193.36 43.3758Z" fill="#FCFCFC"/>
<path d="M1916.31 9.06028C1929.96 -0.290992 1945 20.1669 1927.88 25.6176C1915.58 29.5298 1906.27 15.9385 1916.31 9.06028Z" fill="#FCFCFC"/>
<path d="M2051.74 -13.7107C2067.78 -20.3184 2081.61 0.934768 2061.21 3.85032C2042.45 6.53922 2045.82 -11.2799 2051.74 -13.7107Z" fill="#FCFCFC"/>
<path d="M1917.1 113.376C1898.71 113.932 1903.4 89.1476 1925.91 97.4758C1937.88 101.883 1928.64 113.026 1917.1 113.376Z" fill="#FCFCFC"/>
<path d="M1852.88 163.093C1833.67 166.443 1826.78 149.564 1846.04 146.482C1864.11 143.582 1862.94 161.343 1852.88 163.093Z" fill="#FCFCFC"/>
<path d="M1771.52 197.247C1787.56 190.64 1801.39 211.893 1780.99 214.808C1762.23 217.497 1765.59 199.678 1771.52 197.247Z" fill="#FCFCFC"/>
<path d="M2153.32 317.269C2137.29 323.876 2123.45 302.623 2143.85 299.708C2162.62 297.019 2159.25 314.838 2153.32 317.269Z" fill="#FCFCFC"/>
<path d="M1807.67 79.6447C1789.28 80.2009 1793.97 55.4162 1816.48 63.7444C1828.45 68.1516 1819.21 79.2943 1807.67 79.6447Z" fill="#FCFCFC"/>
<path d="M1857.09 324.596C1843.59 330.095 1828.33 313.425 1841.41 307.213C1855.62 300.493 1867.7 320.262 1857.09 324.596Z" fill="#FCFCFC"/>
<path d="M2257.39 110.923C2266.21 123.325 2234.22 134.673 2232.6 118.201C2231.85 110.807 2252.04 103.389 2257.39 110.923Z" fill="#FCFCFC"/>
<path d="M1931.76 62.2508C1925.11 52.4847 1948.81 38.8337 1955.39 53.0469C1961.15 65.5129 1936.12 68.6377 1931.76 62.2508Z" fill="#FCFCFC"/>
<path d="M2224.99 282.962C2204.56 285.758 2207.71 265.399 2223.98 265.669C2240.63 265.946 2237.39 281.257 2224.99 282.962Z" fill="#FCFCFC"/>
<path d="M2196.4 101.612C2176.93 103.971 2186.12 76.5623 2202.21 82.0892C2211.14 85.1558 2206.9 100.343 2196.4 101.612Z" fill="#FCFCFC"/>
<path d="M2208.8 6.03698C2188.38 8.83309 2191.52 -11.5262 2207.79 -11.2562C2224.44 -10.9792 2221.21 4.33243 2208.8 6.03698Z" fill="#FCFCFC"/>
<path d="M1971.83 18.91C1951.41 21.7061 1954.55 1.34688 1970.82 1.61682C1987.47 1.8938 1984.24 17.2055 1971.83 18.91Z" fill="#FCFCFC"/>
<path d="M2035.65 51.2772C2015.22 54.0733 2018.37 33.7141 2034.63 33.984C2051.29 34.261 2048.05 49.5727 2035.65 51.2772Z" fill="#FCFCFC"/>
<path d="M1640.72 321.918C1630.05 323.083 1621.11 309.322 1630.55 305.082C1649.21 296.7 1659.77 319.843 1640.72 321.918Z" fill="#FCFCFC"/>
<path d="M2243.26 159.695C2252.05 149.359 2278.67 160.388 2259.26 171.073C2244.23 179.328 2236.85 167.238 2243.26 159.695Z" fill="#FCFCFC"/>
<path d="M1700.5 137.157C1687.42 137.802 1686.11 115.384 1702.88 117.049C1719.86 118.733 1712.66 136.572 1700.5 137.157Z" fill="#FCFCFC"/>
<path d="M1774.92 305.56C1777.75 308.346 1771.52 326.687 1757.05 319.291C1733.51 307.292 1768.45 299.18 1774.92 305.56Z" fill="#FCFCFC"/>
<path d="M1899.85 211.837C1899.06 196.293 1904 192.773 1922.42 196.38C1923.21 211.924 1918.27 215.444 1899.85 211.837Z" fill="#FCFCFC"/>
<path d="M1634.62 274.468C1623.95 275.633 1615.01 261.871 1624.45 257.632C1643.11 249.25 1653.68 272.393 1634.62 274.468Z" fill="#FCFCFC"/>
<path d="M1729.08 199.091C1742.37 193.573 1759.39 210.204 1741.07 216.069C1726.27 220.8 1721.02 202.464 1729.08 199.091Z" fill="#FCFCFC"/>
<path d="M2063.72 77.8277C2067.85 106.576 2029.87 92.3991 2044.04 78.7015C2047.87 74.9895 2058.2 77.4256 2063.72 77.8277Z" fill="#FCFCFC"/>
<path d="M2210.82 235.224C2206.7 206.476 2244.67 220.652 2230.5 234.35C2226.67 238.062 2216.34 235.626 2210.82 235.224Z" fill="#FCFCFC"/>
<path d="M1995.03 97.6752C1988.26 88.1025 2017.27 77.5288 2020.32 89.9455C2023.38 102.362 1999.29 103.7 1995.03 97.6752Z" fill="#FCFCFC"/>
<path d="M2122.75 173.824C2107.69 173.434 2117.11 149.563 2132.05 154.601C2142.38 158.092 2135.94 174.187 2122.75 173.824Z" fill="#FCFCFC"/>
<path d="M1585.32 267.485C1593.77 265.849 1603.97 262.617 1609.15 271.103C1605.6 286.795 1578.62 287.364 1585.32 267.485Z" fill="#FCFCFC"/>
<path d="M1977.65 58.0139C1973.53 29.2656 2011.5 43.4425 1997.34 57.1401C1993.5 60.8521 1983.18 58.416 1977.65 58.0139Z" fill="#FCFCFC"/>
<path d="M1963.46 109.007C1943.74 111.371 1953.39 85.1481 1969.28 89.4548C1977.72 91.7428 1974.49 107.7 1963.46 109.007Z" fill="#FCFCFC"/>
<path d="M2247.26 68.9517C2252.84 76.9476 2234.22 92.3361 2226.9 81.5394C2218.46 69.1436 2241.28 60.3613 2247.26 68.9517Z" fill="#FCFCFC"/>
<path d="M2150.16 56.6597C2154.29 85.408 2116.32 71.2311 2130.48 57.5335C2134.32 53.8215 2144.64 56.2576 2150.16 56.6597Z" fill="#FCFCFC"/>
<path d="M2153.75 18.9094C2149.63 -9.83889 2187.6 4.338 2173.43 18.0356C2169.6 21.7476 2159.27 19.3115 2153.75 18.9094Z" fill="#FCFCFC"/>
<path d="M1712.73 267.162C1701.7 268.381 1692.32 254.813 1706.18 250.754C1726.62 244.767 1727.66 265.548 1712.73 267.162Z" fill="#FCFCFC"/>
<path d="M2262.96 28.8545C2251.94 30.0738 2242.55 16.505 2256.41 12.4468C2276.85 6.4589 2277.89 27.2409 2262.96 28.8545Z" fill="#FCFCFC"/>
<path d="M2132.79 16.9084C2138.76 43.5747 2098.13 32.2242 2113.11 17.7824C2116.98 14.0446 2127.26 16.5354 2132.79 16.9084Z" fill="#FCFCFC"/>
<path d="M2245.86 311.732C2245.01 296.065 2250.18 292.684 2268.39 296.301C2269.22 309.153 2260.59 314.817 2245.86 311.732Z" fill="#FCFCFC"/>
<path d="M1760.65 169.127C1749.63 170.346 1740.24 156.777 1754.1 152.719C1774.55 146.731 1775.58 167.513 1760.65 169.127Z" fill="#FCFCFC"/>
<path d="M1839.62 103.598C1845.59 130.264 1804.96 118.914 1819.94 104.472C1823.81 100.734 1834.09 103.225 1839.62 103.598Z" fill="#FCFCFC"/>
<path d="M1605.71 233.953C1601.04 206.502 1639.6 218.185 1623.81 231.525C1619.04 235.558 1612.12 235.025 1605.71 233.953Z" fill="#FCFCFC"/>
<path d="M2004.91 -3.58354C2010.87 -10.142 2035.09 -2.3567 2022.84 9.70436C2014.3 18.1017 1996.62 5.54028 2004.91 -3.58354Z" fill="#FCFCFC"/>
<path d="M1664.21 210.187C1664.26 215.612 1663.58 221.32 1657.9 224.477C1639.12 234.84 1632.61 201.209 1664.21 210.187Z" fill="#FCFCFC"/>
<path d="M1775.78 68.5582C1787.2 76.9858 1763.53 94.7998 1755.63 78.1481C1751.46 69.3474 1770.52 64.6646 1775.78 68.5582Z" fill="#FCFCFC"/>
<path d="M1890.21 14.6329C1890.26 20.058 1889.58 25.7661 1883.9 28.9234C1865.12 39.2867 1858.61 5.65515 1890.21 14.6329Z" fill="#FCFCFC"/>
<path d="M1886.39 55.2871L1893.64 53.039C1898.04 54.214 1905.98 52.7931 1909.22 57.2872C1917.97 69.4188 1884.63 76.6263 1886.39 55.2871Z" fill="#FCFCFC"/>
<path d="M1854.04 75.274C1839.84 76.9565 1839.64 59.6515 1849.58 57.9497C1867.93 54.8116 1868.24 73.5916 1854.04 75.274Z" fill="#FCFCFC"/>
<path d="M1595.3 59.8792C1576.96 63.0173 1576.65 44.2373 1590.84 42.5548C1605.04 40.8724 1605.24 58.1773 1595.3 59.8792Z" fill="#FCFCFC"/>
<path d="M1682.17 56.5932L1684.84 65.6336C1682.9 66.4472 1667.81 82.4316 1663.85 67.7318C1659.81 52.7028 1673.61 57.4871 1682.17 56.5932Z" fill="#FCFCFC"/>
<path d="M1718.09 173.827C1703.89 175.509 1703.69 158.204 1713.63 156.502C1731.97 153.364 1732.28 172.144 1718.09 173.827Z" fill="#FCFCFC"/>
<path d="M1664.47 145.343C1650.27 147.026 1650.06 129.721 1660.01 128.019C1678.35 124.881 1678.66 143.661 1664.47 145.343Z" fill="#FCFCFC"/>
<path d="M1804.38 -8.08972C1807.77 -9.00112 1814.1 -10.0178 1815.39 -12.9139C1829.78 -12.1176 1822.75 -2.11402 1824.49 2.59074C1822.32 2.82627 1818.74 5.00892 1817.24 4.83883C1801.29 3.13323 1806.17 0.633049 1804.38 -8.08972Z" fill="#FCFCFC"/>
<path d="M1649.23 182.409C1648.02 182.852 1646.28 186.819 1643.75 187.899C1624.28 196.264 1621.98 168.655 1643.07 173.04C1643.23 173.583 1651.43 177.694 1649.23 182.409Z" fill="#FCFCFC"/>
<path d="M1784.18 25.5801C1787.76 24.13 1796.34 26.8701 1801.13 26.7644C1803.06 60.1114 1767.06 32.467 1784.18 25.5801Z" fill="#FCFCFC"/>
<path d="M1750.77 50.8821C1731.62 53.1541 1740.98 29.2477 1756.38 34.2701C1765.29 37.1881 1760.24 49.7508 1750.77 50.8821Z" fill="#FCFCFC"/>
<path d="M1596.42 145.218C1590.74 144.215 1584.67 144.493 1578.98 143.578L1584.11 126.481C1587.43 127.028 1597.52 127.156 1598.09 127.796C1599.18 128.953 1595.96 141.57 1596.45 145.25L1596.42 145.218Z" fill="#FCFCFC"/>
<path d="M1556.22 161.911C1551.73 158.765 1551.44 139.401 1569.74 145.809C1582.37 150.249 1564.87 168.027 1556.22 161.911Z" fill="#FCFCFC"/>
<path d="M1613.8 184.938C1616.1 201.297 1593.15 208.837 1593.9 188.868L1613.8 184.938Z" fill="#FCFCFC"/>
<path d="M1779.5 106.765C1783.86 107.936 1791.87 106.522 1795.08 111.013C1803.56 122.915 1777.97 124.141 1774.65 120.957C1773.84 120.178 1776 112.207 1775.74 109.341L1779.5 106.765Z" fill="#FCFCFC"/>
<path d="M1649.14 71.0664C1651.39 73.358 1648.49 91.8942 1635.37 87.3206C1620.17 82.0242 1640.15 61.9293 1649.14 71.0664Z" fill="#FCFCFC"/>
<path d="M1605.52 160.72C1604.89 161.071 1604.89 166.344 1601.52 167.698C1581.73 175.739 1580.88 148.529 1602.85 151.68C1603.84 154.673 1605.61 157.506 1605.52 160.72Z" fill="#FCFCFC"/>
<path d="M1824.97 34.8633C1820.38 18.2585 1831.04 17.0935 1846.99 25.2149C1847.34 26.7709 1846.42 29.1158 1846.45 31.0231C1843.09 31.8797 1838.31 35.6193 1835.44 35.8473C1832.81 36.0402 1827.96 35.2906 1824.97 34.8633Z" fill="#FCFCFC"/>
<path d="M1868.53 -16.704C1877.66 -7.61181 1850.07 4.8521 1846.68 -8.56231C1843.76 -20.1462 1866.21 -19.0021 1868.53 -16.704Z" fill="#FCFCFC"/>
<path d="M1509.69 19.8635C1507.96 18.7636 1497.5 19.2738 1496.18 14.1695C1493.37 3.26996 1509.59 4.09169 1518.03 5.96986C1517.74 9.8389 1517.3 13.7239 1516.94 17.5864L1509.69 19.8344L1509.69 19.8635Z" fill="#FCFCFC"/>
<path d="M1592 80.3431C1581.74 58.4596 1619.8 60.4569 1608.27 76.0433C1605.01 80.4242 1597.95 81.7528 1592 80.3431Z" fill="#FCFCFC"/>
<path d="M1590.23 323.349L1598.57 309.485C1603.23 309.689 1607.91 310.451 1612.53 310.797C1613.13 329.81 1603.44 322.453 1590.23 323.349Z" fill="#FCFCFC"/>
<path d="M1753.72 118.988C1752.57 120.697 1753.44 124.529 1749.75 125.999C1744.56 128.088 1737.6 126.116 1731.97 125.704C1731.64 112.02 1735.89 111.042 1750.78 112.852L1753.72 118.988Z" fill="#FCFCFC"/>
<path d="M1725.86 92.7242C1710.7 93.3789 1714.44 70.4097 1731.35 75.8669C1740.74 78.8889 1733.88 92.3943 1725.86 92.7242Z" fill="#FCFCFC"/>
<path d="M1637.37 46.5233C1641.04 51.5856 1640.56 56.755 1636.01 61.0439C1614.11 62.1786 1611.49 50.4181 1637.37 46.5233Z" fill="#FCFCFC"/>
<path d="M1731.06 23.1051C1723.75 15.1808 1723.96 12.1539 1732.7 5.68039C1738.47 7.2479 1746.86 6.33763 1746.15 14.2692C1745.33 22.9815 1733.43 21.5403 1731.06 23.1051Z" fill="#FCFCFC"/>
<path d="M1767.32 11.8642L1764.1 8.63206C1766.87 2.74005 1772.15 -13.4043 1782.68 0.0370785C1791.57 11.3621 1774.1 10.8321 1767.32 11.8642Z" fill="#FCFCFC"/>
<path d="M1721.02 -1.31172C1706.7 0.857879 1706.29 -17.9028 1715.75 -19.3278C1730.06 -21.4974 1730.48 -2.73674 1721.02 -1.31172Z" fill="#FCFCFC"/>
<path d="M1579.99 20.6159C1572.06 17.3508 1573.48 25.8343 1570.72 25.6332C1568.48 25.4814 1569.51 17.9601 1562.55 18.9758C1563.12 15.8947 1564.1 9.98058 1563.64 7.35935C1570.51 3.96177 1578.94 4.43284 1580.81 11.9036C1581.24 13.7018 1580.39 18.28 1579.99 20.6159Z" fill="#FCFCFC"/>
<path d="M1589.79 103.57C1589.1 107.49 1598.15 119.386 1579.46 120.236C1568.08 120.748 1577.48 106.543 1579.33 102.586L1589.79 103.57Z" fill="#FCFCFC"/>
<path d="M1641.87 111.368C1638.66 108.136 1646.92 92.8867 1655.65 95.1139C1670.49 98.9123 1651.64 121.223 1641.87 111.368Z" fill="#FCFCFC"/>
<path d="M1695.19 101.473C1677.04 108.907 1671.25 78.772 1694.87 87.2633C1702.23 89.9175 1697.86 100.377 1695.19 101.473Z" fill="#FCFCFC"/>
<path d="M1652.42 36.2163C1666.35 26.9203 1679.93 33.3825 1669.05 46.5688C1657.67 45.4995 1653.66 46.6455 1652.42 36.2163Z" fill="#FCFCFC"/>
<path d="M1628.83 25.2069C1626.82 30.4385 1628.4 39.8741 1618.43 41.7792C1611.13 43.172 1610.89 31.7827 1611.11 26.4709L1628.83 25.2069Z" fill="#FCFCFC"/>
<path d="M1691.33 34.0158C1691.65 31.7604 1685.19 20.0195 1696.46 16.919C1698.05 16.4825 1701.54 17.953 1703.44 17.5751C1710.45 24.534 1702.19 31.2277 1701.8 34.9998L1691.33 34.0158Z" fill="#FCFCFC"/>
<path d="M1625.15 139.124C1628.44 139.023 1632.7 140.42 1635.62 140.109C1647.48 156.957 1618.51 157.397 1617.23 148.575C1616.63 144.504 1624.34 141.802 1625.15 139.124Z" fill="#FCFCFC"/>
<path d="M1601.07 95.8405C1603.15 93.5459 1600.18 84.037 1610.89 85.015C1620.13 85.8552 1618.31 92.1295 1618.51 97.4806C1610.76 101.674 1604.65 105.699 1601.07 95.8405Z" fill="#FCFCFC"/>
<path d="M1565.71 60.2894C1561.08 59.0044 1554.01 60.83 1549.99 56.0572C1546.06 50.6778 1552.79 46.7992 1553.12 44.4567C1568.89 43.6545 1570.42 48.6913 1565.71 60.2894C1582.17 64.8261 1572.21 71.5656 1574.8 75.7941C1547.29 82.0842 1562 69.375 1565.71 60.2894Z" fill="#FCFCFC"/>
<path d="M1670.7 178.569C1667.03 173.506 1667.51 168.337 1672.07 164.048C1698.68 170.359 1693.36 174.46 1670.7 178.569Z" fill="#FCFCFC"/>
<path d="M1703.1 58.5621C1702.65 57.3479 1699.88 55.7688 1699.89 55.3299C1699.79 51.8637 1704.06 48.3686 1704.19 46.9456C1710.13 44.0468 1716.34 44.6307 1721.63 48.5857C1721.54 49.544 1721.45 50.5314 1721.36 51.4898C1721.18 53.4355 1721 55.3523 1720.81 57.298C1713.96 58.6754 1706.16 57.8535 1703.1 58.5621Z" fill="#FCFCFC"/>
<path d="M1544.3 26.0468L1554.76 27.0308C1554.16 27.4721 1554.66 31.0938 1554.22 32.8391C1553.53 35.6167 1554.04 38.7705 1553.4 41.5515C1523.91 45.2536 1540.64 34.6096 1544.3 26.0468Z" fill="#FCFCFC"/>
<path d="M1650.03 24.272L1639.83 20.3838L1640.11 17.4797C1640.55 17.2867 1640.88 11.8396 1644.14 10.5343C1666.61 1.3384 1654.65 19.2284 1653.51 24.6L1650.03 24.272Z" fill="#FCFCFC"/>
<path d="M1680.93 -5.04751C1681.78 -4.32332 1689.25 -5.55439 1690.88 -3.81887C1693.09 -1.47253 1689.44 4.77627 1690.3 7.55303C1675.26 14.5172 1665.03 0.195261 1680.93 -5.04751Z" fill="#FCFCFC"/>
<path d="M1584.45 85.4908C1585.07 86.0178 1583.38 92.0115 1583.63 94.2032C1582.54 94.9212 1580.65 98.1715 1579.59 99.6834C1551.05 97.1164 1574.75 77.1078 1584.45 85.4908Z" fill="#FCFCFC"/>
<path d="M1578.35 38.0406C1571.14 31.3266 1579.48 25.343 1579.72 23.52L1593.67 24.832C1594.2 36.0734 1587.79 35.7055 1578.35 38.0406Z" fill="#FCFCFC"/>
<path d="M1617.14 112.003C1628.2 113.043 1626.24 117.781 1626.51 124.604C1615.52 129.606 1605.19 124.562 1611.66 114.506C1612.73 112.849 1616.89 112.477 1617.14 112.003Z" fill="#FCFCFC"/>
<path d="M1602.56 5.15779C1613.59 0.159348 1623.88 5.19993 1617.41 15.285C1616.34 16.9422 1612.18 17.3134 1611.93 17.7583C1601.5 16.7776 1602.25 12.1895 1602.56 5.15779Z" fill="#FCFCFC"/>
<path d="M1592.64 -1.63153C1592.68 -2.44797 1587.46 -15.3908 1595.86 -16.0074C1614.46 -17.3637 1603.43 -4.13243 1603.1 -0.647484L1592.64 -1.63153Z" fill="#FCFCFC"/>
<path d="M1560.7 1.22533C1560.45 0.879636 1555.84 1.6473 1554.55 0.0317104C1552.15 -2.88938 1555.6 -8.51261 1554.82 -11.0472C1572.33 -18.7467 1574.52 -4.62411 1560.7 1.22533Z" fill="#FCFCFC"/>
<path d="M1510.66 84.4112C1496.36 82.6855 1496.06 64.4639 1512.02 69.8906C1511.55 74.8857 1514.44 73.6927 1510.66 84.4112Z" fill="#FCFCFC"/>
<path d="M1639.7 2.76342C1627.69 3.97803 1628.82 -19.6761 1644.82 -14.3042C1654.41 -11.0882 1646.77 2.0222 1639.7 2.76342Z" fill="#FCFCFC"/>
<path d="M1517.14 281.058C1510.3 276.048 1518.26 260.947 1530.54 265.032C1543.78 269.441 1529.66 290.203 1517.14 281.058Z" fill="#FCFCFC"/>
</svg>
