<svg width="179" height="179" viewBox="0 0 179 179" fill="none" xmlns="http://www.w3.org/2000/svg">
<path opacity="0.1" d="M8.28927 116.636C6.60278 114.949 8.25953 112.097 10.5715 112.706L26.3516 116.869C26.3737 116.875 26.3866 116.898 26.3806 116.92C26.3786 116.927 26.3748 116.934 26.3695 116.939L21.4267 121.882C20.5075 122.801 20.4998 124.285 21.4101 125.195C23.0967 126.882 21.4405 129.734 19.1286 129.124L3.3485 124.963C3.32617 124.957 3.31289 124.934 3.31881 124.911C3.32075 124.904 3.3246 124.897 3.32985 124.892L8.27339 119.949C9.19238 119.029 9.19955 117.546 8.28927 116.636ZM25.9669 98.9584C24.2803 97.2718 25.9372 94.4188 28.2492 95.0286L44.0292 99.1911C44.0514 99.1972 44.0643 99.2199 44.0582 99.2422C44.0563 99.2494 44.0524 99.2563 44.0472 99.2616L39.1043 104.204C38.1852 105.124 38.1774 106.607 39.0878 107.518C40.7743 109.204 39.1181 112.056 36.8062 111.447L21.0255 107.285C21.0035 107.279 20.9906 107.256 20.9965 107.234C20.9984 107.227 21.0023 107.22 21.0075 107.214L25.9511 102.271C26.8701 101.352 26.8772 99.8687 25.9669 98.9584ZM43.6446 81.2808C41.958 79.5941 43.6148 76.7411 45.9268 77.3509L61.7069 81.5135C61.7291 81.5195 61.742 81.5422 61.7359 81.5646C61.734 81.5717 61.7301 81.5787 61.7249 81.5839L56.782 86.5268C55.8628 87.4459 55.8551 88.9296 56.7654 89.8399C58.452 91.5265 56.7958 94.3786 54.4839 93.7691L38.7038 89.6065C38.6816 89.6006 38.6683 89.5784 38.6741 89.5561C38.6761 89.549 38.68 89.542 38.6852 89.5368L43.6287 84.5933C44.5478 83.6741 44.5549 82.1911 43.6446 81.2808ZM61.3223 63.6031C59.6356 61.9164 61.2925 59.0634 63.6045 59.6733L79.3839 63.8351C79.4063 63.841 79.4197 63.8644 79.4136 63.8869C79.4116 63.894 79.4078 63.901 79.4025 63.9062L74.4597 68.8491C73.5405 69.7683 73.5335 71.2512 74.4438 72.1616C76.1302 73.8482 74.4734 76.7009 72.1616 76.0914L56.3815 71.9289C56.3593 71.923 56.346 71.9008 56.3518 71.8785C56.3538 71.8713 56.3576 71.8644 56.3629 71.8591L61.3064 66.9156C62.2255 65.9964 62.2326 64.5134 61.3223 63.6031ZM78.9999 45.9254C77.3133 44.2388 78.9701 41.3858 81.2822 41.9956L97.0616 46.1574C97.084 46.1634 97.0974 46.1868 97.0912 46.2092C97.0893 46.2162 97.0859 46.2227 97.0809 46.2279L92.1374 51.1714C91.2182 52.0906 91.2111 53.5736 92.1215 54.4839C93.8079 56.1705 92.1511 59.0232 89.8393 58.4137L74.0592 54.2512C74.0368 54.2452 74.0241 54.2225 74.0302 54.2001C74.0321 54.1931 74.0354 54.1866 74.0405 54.1814L78.9841 49.2379C79.9032 48.3187 79.9102 46.8358 78.9999 45.9254ZM96.6776 28.2478C94.991 26.5611 96.6478 23.7081 98.9598 24.3179L114.739 28.4798C114.762 28.4857 114.775 28.5091 114.769 28.5316C114.767 28.5385 114.764 28.5451 114.759 28.5502L109.815 33.4937C108.896 34.4129 108.889 35.8959 109.799 36.8062C111.485 38.4928 109.829 41.3455 107.517 40.7361L91.7368 36.5735C91.7145 36.5676 91.7017 36.5449 91.7078 36.5224C91.7098 36.5154 91.7131 36.509 91.7182 36.5038L96.6617 31.5602C97.5808 30.6411 97.5879 29.1581 96.6776 28.2478ZM114.355 10.5701C112.669 8.88344 114.325 6.03044 116.638 6.64026L132.417 10.8021C132.439 10.808 132.453 10.8314 132.447 10.8539C132.445 10.8608 132.441 10.8674 132.436 10.8725L127.493 15.8161C126.574 16.7353 126.566 18.2182 127.477 19.1286C129.163 20.8152 127.506 23.6679 125.195 23.0584L109.415 18.8959C109.392 18.8899 109.379 18.8672 109.386 18.8448C109.387 18.8378 109.391 18.8313 109.396 18.8261L114.339 13.8826C115.259 12.9634 115.266 11.4804 114.355 10.5701Z" fill="white"/>
<path opacity="0.1" d="M16.7745 125.121C15.088 123.435 16.7448 120.582 19.0567 121.192L34.8368 125.354C34.859 125.36 34.8718 125.383 34.8658 125.405C34.8639 125.412 34.86 125.419 34.8547 125.425L29.9119 130.367C28.9927 131.287 28.985 132.77 29.8953 133.681C31.5819 135.367 29.9257 138.219 27.6138 137.61L11.8337 133.449C11.8114 133.443 11.7981 133.419 11.804 133.397C11.806 133.39 11.8098 133.383 11.8151 133.377L16.7586 128.434C17.6776 127.515 17.6848 126.032 16.7745 125.121ZM34.4522 107.444C32.7656 105.757 34.4224 102.904 36.7344 103.514L52.5145 107.676C52.5366 107.683 52.5495 107.705 52.5435 107.728C52.5415 107.735 52.5377 107.742 52.5324 107.747L47.5896 112.69C46.6704 113.609 46.6627 115.093 47.573 116.003C49.2595 117.69 47.6033 120.542 45.2915 119.932L29.5107 115.77C29.4887 115.764 29.4759 115.741 29.4817 115.719C29.4836 115.712 29.4875 115.705 29.4928 115.7L34.4363 110.756C35.3553 109.837 35.3625 108.354 34.4522 107.444ZM52.1298 89.7661C50.4432 88.0795 52.1001 85.2265 54.4121 85.8363L70.1921 89.9988C70.2143 90.0049 70.2272 90.0276 70.2211 90.0499C70.2192 90.0571 70.2153 90.064 70.2101 90.0693L65.2672 95.0121C64.3481 95.9313 64.3403 97.4149 65.2507 98.3253C66.9372 100.012 65.281 102.864 62.9691 102.254L47.1891 98.0919C47.1669 98.0859 47.1535 98.0638 47.1594 98.0415C47.1613 98.0343 47.1652 98.0274 47.1704 98.0221L52.114 93.0786C53.033 92.1594 53.0401 90.6764 52.1298 89.7661ZM69.8075 72.0884C68.1209 70.4018 69.7777 67.5488 72.0897 68.1586L87.8691 72.3205C87.8915 72.3264 87.9049 72.3498 87.8988 72.3723C87.8969 72.3794 87.893 72.3864 87.8878 72.3916L82.9449 77.3344C82.0257 78.2536 82.0187 79.7366 82.929 80.6469C84.6154 82.3335 82.9586 85.1862 80.6468 84.5768L64.8667 80.4142C64.8445 80.4083 64.8312 80.3861 64.837 80.3638C64.839 80.3567 64.8429 80.3497 64.8481 80.3445L69.7916 75.4009C70.7107 74.4818 70.7178 72.9988 69.8075 72.0884ZM87.4852 54.4108C85.7985 52.7241 87.4554 49.8711 89.7674 50.4809L105.547 54.6428C105.569 54.6487 105.583 54.6721 105.576 54.6946C105.575 54.7015 105.571 54.7081 105.566 54.7132L100.623 59.6568C99.7034 60.5759 99.6964 62.0589 100.607 62.9693C102.293 64.6559 100.636 67.5086 98.3245 66.8991L82.5444 62.7365C82.5221 62.7306 82.5093 62.7079 82.5154 62.6854C82.5174 62.6785 82.5206 62.672 82.5258 62.6668L87.4693 57.7233C88.3884 56.8041 88.3955 55.3211 87.4852 54.4108ZM105.163 36.7331C103.476 35.0465 105.133 32.1935 107.445 32.8033L123.224 36.9651C123.247 36.971 123.26 36.9944 123.254 37.0169C123.252 37.0239 123.249 37.0304 123.244 37.0356L118.3 41.9791C117.381 42.8983 117.374 44.3812 118.284 45.2916C119.971 46.9782 118.314 49.8308 116.002 49.2214L100.222 45.0589C100.2 45.0529 100.187 45.0302 100.193 45.0078C100.195 45.0008 100.198 44.9943 100.203 44.9891L105.147 40.0456C106.066 39.1264 106.073 37.6434 105.163 36.7331ZM122.841 19.0554C121.154 17.3688 122.811 14.5158 125.123 15.1256L140.902 19.2875C140.925 19.2934 140.938 19.3168 140.932 19.3392C140.93 19.3462 140.927 19.3527 140.921 19.3579L135.978 24.3014C135.059 25.2206 135.052 26.7036 135.962 27.6139C137.648 29.3005 135.992 32.1532 133.68 31.5437L117.9 27.3812C117.877 27.3753 117.865 27.3526 117.871 27.3301C117.873 27.3231 117.876 27.3166 117.881 27.3115L122.825 22.3679C123.744 21.4488 123.751 19.9658 122.841 19.0554Z" fill="white"/>
<path opacity="0.1" d="M25.2597 133.607C23.5732 131.92 25.23 129.067 27.5419 129.677L43.322 133.84C43.3442 133.846 43.357 133.868 43.351 133.891C43.3491 133.898 43.3452 133.905 43.34 133.91L38.3971 138.853C37.478 139.772 37.4702 141.256 38.3806 142.166C40.0672 143.853 38.4109 146.705 36.099 146.095L20.319 141.934C20.2966 141.928 20.2833 141.905 20.2893 141.882C20.2912 141.875 20.2951 141.868 20.3003 141.863L25.2438 136.919C26.1628 136 26.17 134.517 25.2597 133.607ZM42.9374 115.929C41.2508 114.242 42.9076 111.389 45.2196 111.999L60.9997 116.162C61.0218 116.168 61.0347 116.191 61.0287 116.213C61.0268 116.22 61.0229 116.227 61.0176 116.232L56.0748 121.175C55.1556 122.094 55.1479 123.578 56.0582 124.488C57.7447 126.175 56.0885 129.027 53.7767 128.417L37.9959 124.256C37.974 124.249 37.9611 124.227 37.9669 124.204C37.9689 124.197 37.9727 124.19 37.978 124.185L42.9215 119.242C43.8405 118.322 43.8477 116.839 42.9374 115.929ZM60.6151 98.2515C58.9285 96.5648 60.5853 93.7118 62.8973 94.3216L78.6774 98.4842C78.6996 98.4903 78.7124 98.5129 78.7064 98.5353C78.7044 98.5424 78.7006 98.5494 78.6953 98.5546L73.7525 103.497C72.8333 104.417 72.8256 105.9 73.7359 106.811C75.4224 108.497 73.7662 111.349 71.4544 110.74L55.6743 106.577C55.6521 106.571 55.6388 106.549 55.6446 106.527C55.6465 106.52 55.6504 106.513 55.6557 106.507L60.5992 101.564C61.5183 100.645 61.5254 99.1618 60.6151 98.2515ZM78.2927 80.5738C76.6061 78.8871 78.2629 76.0341 80.575 76.644L96.3543 80.8058C96.3768 80.8117 96.3901 80.8351 96.384 80.8576C96.3821 80.8647 96.3782 80.8717 96.373 80.8769L91.4301 85.8198C90.511 86.739 90.5039 88.2219 91.4143 89.1323C93.1007 90.8189 91.4439 93.6716 89.132 93.0621L73.352 88.8996C73.3298 88.8937 73.3165 88.8715 73.3223 88.8492C73.3242 88.842 73.3281 88.8351 73.3333 88.8298L78.2769 83.8863C79.1959 82.9671 79.203 81.4841 78.2927 80.5738ZM95.9704 62.8961C94.2838 61.2095 95.9406 58.3565 98.2526 58.9663L114.032 63.1281C114.054 63.1341 114.068 63.1575 114.062 63.1799C114.06 63.1869 114.056 63.1934 114.051 63.1986L109.108 68.1421C108.189 69.0613 108.182 70.5443 109.092 71.4546C110.778 73.1412 109.122 75.9939 106.81 75.3844L91.0296 71.2219C91.0073 71.2159 90.9945 71.1932 91.0006 71.1708C91.0026 71.1638 91.0059 71.1573 91.011 71.1522L95.9545 66.2086C96.8737 65.2894 96.8807 63.8065 95.9704 62.8961ZM113.648 45.2185C111.961 43.5318 113.618 40.6788 115.93 41.2886L131.71 45.4505C131.732 45.4564 131.745 45.4798 131.739 45.5023C131.737 45.5092 131.734 45.5158 131.729 45.5209L126.785 50.4644C125.866 51.3836 125.859 52.8666 126.77 53.7769C128.456 55.4635 126.799 58.3162 124.487 57.7068L108.707 53.5442C108.685 53.5383 108.672 53.5156 108.678 53.4931C108.68 53.4861 108.684 53.4797 108.689 53.4745L113.632 48.531C114.551 47.6118 114.558 46.1288 113.648 45.2185ZM131.326 27.5408C129.639 25.8541 131.296 23.0011 133.608 23.611L149.387 27.7728C149.41 27.7787 149.423 27.8021 149.417 27.8246C149.415 27.8315 149.412 27.8381 149.407 27.8432L144.463 32.7868C143.544 33.706 143.537 35.1889 144.447 36.0993C146.134 37.7859 144.477 40.6386 142.165 40.0291L126.385 35.8666C126.363 35.8606 126.35 35.8379 126.356 35.8155C126.358 35.8085 126.361 35.802 126.366 35.7968L131.31 30.8533C132.229 29.9341 132.236 28.4511 131.326 27.5408Z" fill="white"/>
<path opacity="0.1" d="M33.7451 142.092C32.0586 140.406 33.7153 137.553 36.0273 138.162L51.8074 142.325C51.8295 142.331 51.8424 142.354 51.8364 142.376C51.8344 142.383 51.8306 142.39 51.8253 142.395L46.8825 147.338C45.9633 148.257 45.9556 149.741 46.8659 150.651C48.5525 152.338 46.8963 155.19 44.5844 154.58L28.8043 150.419C28.782 150.413 28.7687 150.39 28.7746 150.368C28.7766 150.36 28.7804 150.353 28.7857 150.348L33.7292 145.405C34.6482 144.485 34.6554 143.002 33.7451 142.092ZM51.4227 124.414C49.7361 122.728 51.393 119.875 53.705 120.485L69.485 124.647C69.5072 124.653 69.5201 124.676 69.514 124.698C69.5121 124.705 69.5083 124.712 69.503 124.718L64.5602 129.66C63.641 130.58 63.6332 132.063 64.5436 132.974C66.2301 134.66 64.5739 137.512 62.2621 136.903L46.4813 132.741C46.4593 132.735 46.4464 132.712 46.4523 132.69C46.4542 132.683 46.4581 132.676 46.4633 132.671L51.4069 127.727C52.3259 126.808 52.333 125.325 51.4227 124.414ZM69.1004 106.737C67.4138 105.05 69.0706 102.197 71.3826 102.807L87.1627 106.97C87.1849 106.976 87.1978 106.998 87.1917 107.021C87.1898 107.028 87.1859 107.035 87.1807 107.04L82.2378 111.983C81.3186 112.902 81.3109 114.386 82.2213 115.296C83.9078 116.983 82.2516 119.835 79.9397 119.225L64.1596 115.063C64.1375 115.057 64.1241 115.034 64.13 115.012C64.1319 115.005 64.1358 114.998 64.141 114.993L69.0845 110.049C70.0036 109.13 70.0107 107.647 69.1004 106.737ZM86.7781 89.0591C85.0914 87.3725 86.7483 84.5195 89.0603 85.1293L104.84 89.2912C104.862 89.2971 104.875 89.3205 104.869 89.343C104.867 89.3501 104.864 89.3571 104.858 89.3623L99.9155 94.3051C98.9963 95.2243 98.9893 96.7073 99.8996 97.6176C101.586 99.3042 99.9292 102.157 97.6174 101.547L81.8373 97.3849C81.8151 97.379 81.8018 97.3568 81.8076 97.3345C81.8096 97.3274 81.8135 97.3204 81.8187 97.3152L86.7622 92.3716C87.6813 91.4525 87.6884 89.9695 86.7781 89.0591ZM104.456 71.3815C102.769 69.6948 104.426 66.8418 106.738 67.4517L122.517 71.6135C122.54 71.6194 122.553 71.6428 122.547 71.6653C122.545 71.6722 122.542 71.6788 122.537 71.6839L117.593 76.6275C116.674 77.5466 116.667 79.0296 117.577 79.94C119.264 81.6266 117.607 84.4793 115.295 83.8698L99.515 79.7072C99.4926 79.7013 99.4799 79.6786 99.486 79.6561C99.4879 79.6492 99.4912 79.6427 99.4963 79.6375L104.44 74.694C105.359 73.7748 105.366 72.2918 104.456 71.3815ZM122.133 53.7038C120.447 52.0172 122.104 49.1642 124.416 49.774L140.195 53.9358C140.217 53.9417 140.231 53.9651 140.225 53.9876C140.223 53.9946 140.219 54.0011 140.214 54.0063L135.271 58.9498C134.352 59.869 134.345 61.3519 135.255 62.2623C136.941 63.9489 135.284 66.8015 132.973 66.1921L117.193 62.0296C117.17 62.0236 117.158 62.0009 117.164 61.9785C117.166 61.9715 117.169 61.965 117.174 61.9598L122.118 57.0163C123.037 56.0972 123.044 54.6142 122.133 53.7038ZM139.811 36.0261C138.124 34.3395 139.781 31.4865 142.093 32.0963L157.873 36.2582C157.895 36.2641 157.909 36.2875 157.902 36.31C157.9 36.3169 157.897 36.3234 157.892 36.3286L152.949 41.2721C152.029 42.1913 152.022 43.6743 152.933 44.5846C154.619 46.2712 152.962 49.1239 150.65 48.5144L134.87 44.3519C134.848 44.346 134.835 44.3233 134.841 44.3008C134.843 44.2938 134.847 44.2873 134.852 44.2822L139.795 39.3386C140.714 38.4195 140.721 36.9365 139.811 36.0261Z" fill="white"/>
<path opacity="0.1" d="M42.2303 150.578C40.5438 148.891 42.2006 146.038 44.5125 146.648L60.2926 150.81C60.3148 150.816 60.3276 150.839 60.3216 150.861C60.3197 150.868 60.3158 150.875 60.3106 150.881L55.3677 155.823C54.4485 156.743 54.4408 158.226 55.3511 159.137C57.0377 160.823 55.3815 163.675 53.0696 163.066L37.2895 158.905C37.2672 158.899 37.2539 158.875 37.2598 158.853C37.2618 158.846 37.2656 158.839 37.2709 158.834L42.2144 153.89C43.1334 152.971 43.1406 151.488 42.2303 150.578ZM59.908 132.9C58.2214 131.213 59.8782 128.36 62.1902 128.97L77.9703 133.133C77.9924 133.139 78.0053 133.161 77.9993 133.184C77.9973 133.191 77.9935 133.198 77.9882 133.203L73.0454 138.146C72.1262 139.065 72.1185 140.549 73.0288 141.459C74.7153 143.146 73.0591 145.998 70.7473 145.388L54.9665 141.226C54.9446 141.22 54.9317 141.197 54.9375 141.175C54.9395 141.168 54.9433 141.161 54.9486 141.156L59.8921 136.212C60.8111 135.293 60.8183 133.81 59.908 132.9ZM77.5856 115.222C75.899 113.536 77.5559 110.683 79.8679 111.292L95.6479 115.455C95.6701 115.461 95.683 115.484 95.6769 115.506C95.675 115.513 95.6712 115.52 95.6659 115.525L90.7231 120.468C89.8039 121.387 89.7961 122.871 90.7065 123.781C92.393 125.468 90.7368 128.32 88.425 127.71L72.6449 123.548C72.6227 123.542 72.6094 123.52 72.6152 123.498C72.6171 123.49 72.621 123.483 72.6262 123.478L77.5698 118.535C78.4888 117.615 78.496 116.132 77.5856 115.222ZM95.2633 97.5445C93.5767 95.8579 95.2335 93.0049 97.5455 93.6147L113.325 97.7765C113.347 97.7824 113.361 97.8058 113.355 97.8283C113.353 97.8354 113.349 97.8424 113.344 97.8476L108.401 102.79C107.482 103.71 107.474 105.193 108.385 106.103C110.071 107.79 108.414 110.642 106.103 110.033L90.3225 105.87C90.3003 105.864 90.2871 105.842 90.2929 105.82C90.2948 105.813 90.2987 105.806 90.3039 105.801L95.2474 100.857C96.1665 99.9378 96.1736 98.4548 95.2633 97.5445ZM112.941 79.8668C111.254 78.1802 112.911 75.3272 115.223 75.937L131.003 80.0989C131.025 80.1048 131.038 80.1282 131.032 80.1506C131.03 80.1576 131.027 80.1641 131.022 80.1693L126.078 85.1128C125.159 86.032 125.152 87.515 126.063 88.4253C127.749 90.1119 126.092 92.9646 123.78 92.3551L108 88.1926C107.978 88.1866 107.965 88.1639 107.971 88.1415C107.973 88.1345 107.976 88.128 107.982 88.1229L112.925 83.1793C113.844 82.2602 113.851 80.7772 112.941 79.8668ZM130.619 62.1892C128.932 60.5025 130.589 57.6495 132.901 58.2593L148.68 62.4212C148.703 62.4271 148.716 62.4505 148.71 62.473C148.708 62.4799 148.705 62.4865 148.7 62.4916L143.756 67.4351C142.837 68.3543 142.83 69.8373 143.74 70.7476C145.426 72.4342 143.77 75.2869 141.458 74.6775L125.678 70.5149C125.655 70.509 125.643 70.4863 125.649 70.4638C125.651 70.4568 125.654 70.4504 125.659 70.4452L130.603 65.5017C131.522 64.5825 131.529 63.0995 130.619 62.1892ZM148.296 44.5115C146.61 42.8248 148.267 39.9718 150.579 40.5817L166.358 44.7435C166.38 44.7494 166.394 44.7728 166.388 44.7953C166.386 44.8022 166.382 44.8088 166.377 44.8139L161.434 49.7575C160.515 50.6767 160.508 52.1596 161.418 53.07C163.104 54.7566 161.447 57.6093 159.136 56.9998L143.356 52.8373C143.333 52.8313 143.32 52.8086 143.327 52.7862C143.328 52.7792 143.332 52.7727 143.337 52.7675L148.28 47.824C149.2 46.9048 149.207 45.4218 148.296 44.5115Z" fill="white"/>
<path opacity="0.1" d="M50.7155 159.063C49.029 157.376 50.6858 154.523 52.9978 155.133L68.7778 159.296C68.8 159.302 68.8128 159.324 68.8068 159.347C68.8049 159.354 68.801 159.361 68.7958 159.366L63.8529 164.309C62.9338 165.228 62.9261 166.712 63.8364 167.622C65.523 169.309 63.8667 172.161 61.5548 171.551L45.7748 167.39C45.7524 167.384 45.7392 167.361 45.7451 167.338C45.747 167.331 45.7509 167.324 45.7561 167.319L50.6997 162.375C51.6187 161.456 51.6258 159.973 50.7155 159.063ZM68.3932 141.385C66.7066 139.699 68.3634 136.846 70.6754 137.455L86.4555 141.618C86.4776 141.624 86.4905 141.647 86.4845 141.669C86.4826 141.676 86.4787 141.683 86.4735 141.688L81.5306 146.631C80.6114 147.55 80.6037 149.034 81.514 149.944C83.2006 151.631 81.5444 154.483 79.2325 153.874L63.4517 149.712C63.4298 149.706 63.4169 149.683 63.4227 149.661C63.4247 149.653 63.4285 149.646 63.4338 149.641L68.3773 144.698C69.2963 143.778 69.3035 142.295 68.3932 141.385ZM86.0709 123.708C84.3843 122.021 86.0411 119.168 88.3531 119.778L104.133 123.94C104.155 123.946 104.168 123.969 104.162 123.991C104.16 123.998 104.156 124.005 104.151 124.011L99.2083 128.954C98.2891 129.873 98.2814 131.356 99.1917 132.267C100.878 133.953 99.2221 136.805 96.9102 136.196L81.1301 132.033C81.1079 132.027 81.0946 132.005 81.1004 131.983C81.1024 131.976 81.1062 131.969 81.1115 131.964L86.055 127.02C86.9741 126.101 86.9812 124.618 86.0709 123.708ZM103.749 106.03C102.062 104.343 103.719 101.49 106.031 102.1L121.81 106.262C121.833 106.268 121.846 106.291 121.84 106.314C121.838 106.321 121.834 106.328 121.829 106.333L116.886 111.276C115.967 112.195 115.96 113.678 116.87 114.588C118.556 116.275 116.9 119.128 114.588 118.518L98.8078 114.356C98.7856 114.35 98.7723 114.328 98.7781 114.305C98.78 114.298 98.7839 114.291 98.7891 114.286L103.733 109.342C104.652 108.423 104.659 106.94 103.749 106.03ZM121.426 88.3522C119.74 86.6655 121.396 83.8125 123.708 84.4224L139.488 88.5842C139.51 88.5901 139.524 88.6135 139.518 88.636C139.516 88.6429 139.512 88.6495 139.507 88.6546L134.564 93.5982C133.644 94.5174 133.637 96.0003 134.548 96.9107C136.234 98.5973 134.577 101.45 132.266 100.84L116.485 96.678C116.463 96.672 116.45 96.6493 116.456 96.6269C116.458 96.6199 116.462 96.6134 116.467 96.6082L121.41 91.6647C122.329 90.7455 122.337 89.2625 121.426 88.3522ZM139.104 70.6745C137.417 68.9879 139.074 66.1349 141.386 66.7447L157.165 70.9065C157.188 70.9124 157.201 70.9358 157.195 70.9583C157.193 70.9653 157.19 70.9718 157.185 70.977L152.241 75.9205C151.322 76.8397 151.315 78.3226 152.225 79.233C153.912 80.9196 152.255 83.7722 149.943 83.1628L134.163 79.0003C134.141 78.9943 134.128 78.9716 134.134 78.9492C134.136 78.9422 134.139 78.9357 134.144 78.9305L139.088 73.987C140.007 73.0679 140.014 71.5849 139.104 70.6745ZM156.782 52.9968C155.095 51.3102 156.752 48.4572 159.064 49.067L174.843 53.2289C174.866 53.2348 174.879 53.2582 174.873 53.2807C174.871 53.2876 174.868 53.2942 174.862 53.2993L169.919 58.2428C169 59.162 168.993 60.645 169.903 61.5553C171.589 63.2419 169.933 66.0946 167.621 65.4852L151.841 61.3226C151.818 61.3167 151.806 61.294 151.812 61.2715C151.814 61.2645 151.817 61.2581 151.822 61.2529L156.766 56.3093C157.685 55.3902 157.692 53.9072 156.782 52.9968Z" fill="white"/>
</svg>
